<svg version="1.1" id="Layer_1" xmlns="http://www.w3.org/2000/svg" xmlns:xlink="http://www.w3.org/1999/xlink" x="0px" y="0px"
	 width="100%" viewBox="0 0 512 332" enable-background="new 0 0 512 332" xml:space="preserve">
<path fill="#F6F6F6" opacity="1.000000" stroke="none" 
	d="
M68.000000,1.000000 
	C216.284927,1.000000 364.569855,1.000000 512.927368,1.000000 
	C512.927368,111.582123 512.927368,222.164307 512.927368,332.873230 
	C342.333405,332.873230 171.666718,332.873230 1.000000,332.873230 
	C1.000000,319.258484 1.000000,305.596222 1.296191,291.652405 
	C6.239936,303.201843 16.480824,308.782166 27.091427,305.265503 
	C38.200062,301.583740 42.922974,291.290588 39.627438,278.655762 
	C39.254414,277.225586 40.202888,274.871796 41.331650,273.730896 
	C45.771587,269.243195 50.528656,265.069244 55.505810,260.877686 
	C70.171455,269.227936 83.735130,267.674835 96.924133,258.037842 
	C98.535255,259.269135 99.798370,260.383606 101.222733,261.225220 
	C105.709305,263.876282 108.238762,266.694153 107.421059,272.938538 
	C106.265602,281.762146 112.985893,289.795746 121.568611,292.341095 
	C129.772339,294.774048 139.087601,291.272552 143.844742,283.967743 
	C148.620010,276.635132 148.045761,266.950531 142.438248,260.246857 
	C136.814819,253.524185 126.888763,250.393448 119.508408,254.929550 
	C113.317436,258.734619 109.373100,257.422089 104.956650,253.125717 
	C104.133675,252.325089 103.060432,251.781738 102.196243,250.775223 
	C103.871841,245.401428 106.435410,240.451904 106.852287,235.327759 
	C108.114128,219.817078 100.394112,208.948563 83.821304,200.796631 
	C84.976135,195.703674 86.061531,191.022522 87.544571,186.331238 
	C90.425980,186.459732 92.917068,186.796432 95.392334,186.704895 
	C111.789612,186.098541 124.997345,178.953995 136.025665,167.022797 
	C143.996780,170.967575 151.660629,174.695557 159.146210,178.779205 
	C157.028137,180.525040 155.088364,181.915207 153.154129,183.301392 
	C156.076035,187.780792 158.744064,191.870972 161.446442,196.013824 
	C161.913010,195.137451 162.366150,194.286301 162.970963,193.150253 
	C163.831940,194.590652 164.421295,195.576645 165.552887,197.469803 
	C165.776337,195.238708 165.888474,194.119049 166.000305,192.999695 
	C166.000000,193.000000 165.999390,193.000610 166.401276,192.998016 
	C169.387589,193.145340 170.285873,192.078262 169.730530,189.457443 
	C169.339447,187.611832 169.436264,185.662857 169.678040,183.674042 
	C171.440323,184.085495 172.839798,184.582901 174.244720,185.543671 
	C172.747070,196.088867 174.081131,205.518280 180.674774,213.717270 
	C189.619141,224.839310 201.426743,227.780228 215.111847,226.043640 
	C216.960648,230.726944 218.537613,235.115128 220.461365,239.345596 
	C221.651932,241.963699 221.375031,243.581024 219.205109,245.740768 
	C212.178223,252.734680 211.352997,262.911621 216.712006,270.836975 
	C221.942474,278.572266 231.970169,281.725464 240.510086,278.320251 
	C249.294586,274.817505 254.470642,265.545685 252.884888,256.153351 
	C251.335770,246.978012 243.429367,240.146774 233.555588,239.956451 
	C230.656921,239.900589 229.490036,238.838791 228.560440,236.349594 
	C226.819138,231.687012 224.763412,227.141846 223.067566,222.319916 
	C235.125305,214.545212 240.408432,203.635468 240.294586,189.665466 
	C248.845764,188.067307 257.025574,186.624634 265.172943,185.017578 
	C268.267731,184.407120 270.488220,184.708755 273.050018,187.233032 
	C280.069244,194.149368 291.237000,194.427475 298.618347,188.520157 
	C305.926239,182.671631 308.440826,173.011810 304.807220,164.745239 
	C301.030548,156.153244 292.440247,151.608170 282.743591,153.071594 
	C274.353821,154.337784 267.240173,161.773941 266.709747,171.030350 
	C266.458252,175.419586 264.641907,176.494522 260.914429,177.072876 
	C253.200928,178.269684 245.544525,179.834549 237.626572,180.992035 
	C231.129623,167.501770 220.941147,160.304749 205.712067,160.245850 
	C204.917175,160.100189 204.457794,160.044968 203.941849,159.652771 
	C202.535660,157.446716 201.292786,155.484924 199.787048,153.751450 
	C199.128006,152.992722 197.411499,152.026321 197.058212,152.298874 
	C192.489914,155.823090 185.687622,156.999161 184.644714,162.828400 
	C182.391098,163.482742 180.522522,163.638535 179.095276,164.513901 
	C175.179855,166.915436 171.449860,169.619278 167.307709,172.128799 
	C158.169434,167.951508 149.369965,163.848877 140.651642,159.385406 
	C141.135376,158.113876 141.544052,157.205826 141.939636,156.292099 
	C150.479736,136.565384 148.789429,117.721069 135.489120,100.847328 
	C122.163467,83.941444 104.162788,78.074364 82.826752,81.466057 
	C80.547745,75.303879 78.457214,69.418098 76.638046,63.320976 
	C87.277458,56.789944 92.782883,47.462177 94.466782,35.512577 
	C106.081963,36.063118 117.228271,36.649872 128.381012,37.062737 
	C131.816742,37.189922 134.067444,37.920258 135.326645,41.766605 
	C137.116653,47.234413 141.378983,50.878632 146.789169,52.886921 
	C156.829010,56.613770 167.888031,51.715271 172.042374,41.824699 
	C176.125305,32.104149 172.061127,21.132565 162.591446,16.311083 
	C153.069901,11.463192 141.525467,14.796428 136.346313,24.443460 
	C134.527542,27.831247 132.659607,28.668219 129.022430,28.415855 
	C117.062370,27.586014 105.073738,27.167921 92.967438,26.218790 
	C89.346695,14.469690 82.264336,6.499176 70.862083,2.578933 
	C69.847092,2.229961 68.951202,1.534524 68.000000,1.000000 
M374.801453,192.995499 
	C381.226562,193.520920 375.096771,186.789230 378.952728,185.745102 
	C379.228058,185.670563 379.555206,184.357803 379.353485,184.173630 
	C377.451324,182.436874 375.439392,180.820312 373.459137,179.169098 
	C373.117645,179.510071 372.776154,179.851059 372.434662,180.192047 
	C372.022827,179.215790 371.610962,178.239532 371.125519,177.088791 
	C368.801331,178.506836 366.967102,180.021194 364.861298,180.817444 
	C361.764099,181.988541 361.554413,183.417862 363.308319,186.002686 
	C365.504364,189.239090 367.393219,192.683929 369.435181,196.072891 
	C369.923706,195.149506 370.380005,194.286987 370.963287,193.184448 
	C371.839813,194.614746 372.436493,195.588425 373.569763,197.437729 
	C373.783997,195.233917 373.892609,194.116653 374.000000,193.000000 
	C374.000000,193.000000 373.999390,193.000610 374.801453,192.995499 
M377.018646,172.523392 
	C379.858185,177.436707 382.697723,182.350021 385.541626,187.270889 
	C391.002930,183.738083 395.709564,180.693451 400.670807,177.484131 
	C397.820404,173.357208 394.975708,168.877960 391.684753,164.754913 
	C390.960693,163.847778 388.184814,163.465881 387.157776,164.114731 
	C383.599854,166.362488 380.396301,169.171234 377.018646,172.523392 
M406.852081,152.532883 
	C403.117981,154.571381 399.264404,156.429535 395.730835,158.770645 
	C394.806488,159.383057 394.104156,161.937988 394.622437,162.845016 
	C397.000946,167.007599 399.848450,170.902176 402.527618,174.892944 
	C402.904449,174.758148 403.281250,174.623367 403.658081,174.488571 
	C403.861328,172.272659 404.064545,170.056747 404.235199,168.196274 
	C405.661743,167.889023 406.912750,167.812531 407.989319,167.339203 
	C409.355255,166.738678 410.649139,165.128494 411.842957,165.249344 
	C412.800690,165.346298 413.562988,167.374207 414.412018,168.545212 
	C414.841003,168.490005 415.269989,168.434814 415.698975,168.379608 
	C415.352966,166.612762 415.450165,164.576843 414.573151,163.132401 
	C412.430237,159.602905 409.836761,156.346985 406.852081,152.532883 
M382.767548,188.755692 
	C382.132019,188.269318 381.496490,187.782959 380.860962,187.296600 
	C380.694122,187.839264 380.527252,188.381912 380.360413,188.924576 
	C381.197662,189.079346 382.034943,189.234100 382.767548,188.755692 
z"/>
<path fill="#F5F6F6" opacity="1.000000" stroke="none" 
	d="
M1.000004,281.000000 
	C1.000000,187.789780 1.000000,94.579559 1.000000,1.000000 
	C18.019114,1.000000 35.040897,1.000000 52.396233,1.332058 
	C52.285152,1.883667 51.856899,2.148459 51.393528,2.316243 
	C33.436752,8.818220 24.128984,25.188202 28.645502,42.339561 
	C33.230156,59.749668 49.085503,69.504555 68.016548,66.771820 
	C70.151512,72.739151 72.135834,78.404289 73.869064,84.307159 
	C46.372044,97.911461 34.462505,124.703026 44.097954,151.644135 
	C50.047207,168.278488 62.175159,178.769821 78.420151,185.091690 
	C77.203239,190.295486 76.122795,195.081589 74.610733,199.938629 
	C68.203964,201.762482 61.645714,202.483322 56.365658,205.466492 
	C41.938297,213.617783 33.899582,235.536697 48.542915,255.145416 
	C43.057888,260.182892 37.831581,265.023590 32.626675,269.844482 
	C23.938671,264.888611 15.644615,264.687164 8.241608,271.192078 
	C5.258364,273.813416 3.380781,277.693054 1.000004,281.000000 
z"/>
<path fill="#118DEE" opacity="1.000000" stroke="none" 
	d="
M67.865913,66.469635 
	C49.085503,69.504555 33.230156,59.749668 28.645502,42.339561 
	C24.128984,25.188202 33.436752,8.818220 51.393528,2.316243 
	C51.856899,2.148459 52.285152,1.883667 52.864891,1.332058 
	C57.689255,1.000000 62.378510,1.000000 67.533882,1.000000 
	C68.951202,1.534524 69.847092,2.229961 70.862083,2.578933 
	C82.264336,6.499176 89.346695,14.469690 92.960533,26.573986 
	C93.388306,30.028637 93.694344,32.755234 94.000381,35.481831 
	C92.782883,47.462177 87.277458,56.789944 76.310349,63.438496 
	C73.096153,64.668121 70.481033,65.568878 67.865913,66.469635 
z"/>
<path fill="#63BE68" opacity="1.000000" stroke="none" 
	d="
M1.000004,281.454102 
	C3.380781,277.693054 5.258364,273.813416 8.241608,271.192078 
	C15.644615,264.687164 23.938671,264.888611 32.626675,269.844482 
	C37.831581,265.023590 43.057888,260.182892 48.827240,255.328125 
	C51.302853,257.135651 53.235420,258.957214 55.167984,260.778809 
	C50.528656,265.069244 45.771587,269.243195 41.331650,273.730896 
	C40.202888,274.871796 39.254414,277.225586 39.627438,278.655762 
	C42.922974,291.290588 38.200062,301.583740 27.091427,305.265503 
	C16.480824,308.782166 6.239936,303.201843 1.296191,291.185425 
	C1.000000,287.969391 1.000000,284.938812 1.000004,281.454102 
z"/>
<path fill="#118CEE" opacity="1.000000" stroke="none" 
	d="
M78.556610,184.673981 
	C62.175159,178.769821 50.047207,168.278488 44.097954,151.644135 
	C34.462505,124.703026 46.372044,97.911461 74.242310,84.281448 
	C77.582840,83.259506 80.299042,82.500984 83.015236,81.742462 
	C104.162788,78.074364 122.163467,83.941444 135.489120,100.847328 
	C148.789429,117.721069 150.479736,136.565384 141.939636,156.292099 
	C141.544052,157.205826 141.135376,158.113876 140.402908,159.591141 
	C138.621475,162.373810 137.169937,164.589905 135.718399,166.806000 
	C124.997345,178.953995 111.789612,186.098541 95.392334,186.704895 
	C92.917068,186.796432 90.425980,186.459732 87.146584,186.226959 
	C83.752846,185.646545 81.154724,185.160263 78.556610,184.673981 
z"/>
<path fill="#118DEE" opacity="1.000000" stroke="none" 
	d="
M55.505806,260.877686 
	C53.235420,258.957214 51.302853,257.135651 49.085960,255.131348 
	C33.899582,235.536697 41.938297,213.617783 56.365658,205.466492 
	C61.645714,202.483322 68.203964,201.762482 75.004959,200.013611 
	C78.471146,200.414566 81.111511,200.811508 83.751869,201.208450 
	C100.394112,208.948563 108.114128,219.817078 106.852287,235.327759 
	C106.435410,240.451904 103.871841,245.401428 101.969620,251.006805 
	C99.982925,253.653931 98.316422,255.725052 96.649918,257.796173 
	C83.735130,267.674835 70.171455,269.227936 55.505806,260.877686 
z"/>
<path fill="#118DEE" opacity="1.000000" stroke="none" 
	d="
M214.986450,225.681915 
	C201.426743,227.780228 189.619141,224.839310 180.674774,213.717270 
	C174.081131,205.518280 172.747070,196.088867 174.440643,185.342300 
	C175.073685,184.107971 175.516266,183.538391 176.226974,183.199982 
	C177.125824,184.931458 177.756561,186.431747 178.868073,189.075653 
	C180.376297,186.646072 181.192047,185.332001 182.250000,183.844345 
	C182.663177,183.113754 182.834152,182.556778 183.002563,181.999893 
	C183.000000,182.000000 183.003555,182.004852 183.342529,181.973923 
	C185.120987,181.295319 186.560501,180.647659 188.315491,179.957169 
	C189.092941,179.290649 189.554871,178.666962 190.348846,178.031952 
	C191.124008,178.014023 191.567093,178.007401 192.170227,177.910034 
	C192.389709,177.713287 192.525589,177.553024 192.495483,177.510651 
	C192.361282,177.321747 192.179672,177.166519 191.840103,176.746399 
	C190.779327,175.660095 189.893646,174.826492 189.003967,173.996460 
	C189.000000,174.000000 189.007538,173.994827 188.897949,173.770233 
	C188.529419,173.340576 188.270447,173.135483 188.012741,172.704102 
	C188.013992,172.477798 188.007355,172.025223 187.887955,171.753265 
	C187.182526,170.968079 186.596481,170.454865 186.007446,169.597641 
	C185.985214,168.795395 185.965973,168.337128 185.984909,167.671509 
	C186.023087,167.464157 186.122314,167.054321 186.340454,167.011765 
	C186.851807,166.841125 187.038696,166.622238 187.425964,166.224182 
	C188.134232,165.998871 188.535812,165.861969 188.984039,166.091812 
	C191.266205,169.616714 193.501709,172.774857 195.737213,175.932999 
	C195.964859,175.735458 196.192490,175.537903 196.420120,175.340363 
	C196.233627,172.932724 196.047134,170.525085 195.879272,168.357895 
	C197.516693,168.044586 198.807739,168.028885 199.878311,167.535141 
	C201.269638,166.893448 202.478745,165.248535 203.779663,165.234009 
	C204.638351,165.224442 205.520554,167.323654 206.392212,168.478683 
	C206.840240,168.411270 207.288269,168.343857 207.736298,168.276443 
	C207.173401,165.629730 206.610504,162.983017 206.047592,160.336304 
	C220.941147,160.304749 231.129623,167.501770 237.665695,181.360626 
	C238.598694,184.575302 239.254486,187.165390 239.910294,189.755478 
	C240.408432,203.635468 235.125305,214.545212 222.716248,222.432007 
	C219.752731,223.741989 217.369598,224.711960 214.986450,225.681915 
z"/>
<path fill="#63BE68" opacity="1.000000" stroke="none" 
	d="
M94.466782,35.512577 
	C93.694344,32.755234 93.388306,30.028637 93.089172,26.946844 
	C105.073738,27.167921 117.062370,27.586014 129.022430,28.415855 
	C132.659607,28.668219 134.527542,27.831247 136.346313,24.443460 
	C141.525467,14.796428 153.069901,11.463192 162.591446,16.311083 
	C172.061127,21.132565 176.125305,32.104149 172.042374,41.824699 
	C167.888031,51.715271 156.829010,56.613770 146.789169,52.886921 
	C141.378983,50.878632 137.116653,47.234413 135.326645,41.766605 
	C134.067444,37.920258 131.816742,37.189922 128.381012,37.062737 
	C117.228271,36.649872 106.081963,36.063118 94.466782,35.512577 
z"/>
<path fill="#63BE68" opacity="1.000000" stroke="none" 
	d="
M240.294586,189.665466 
	C239.254486,187.165390 238.598694,184.575302 237.903763,181.616638 
	C245.544525,179.834549 253.200928,178.269684 260.914429,177.072876 
	C264.641907,176.494522 266.458252,175.419586 266.709747,171.030350 
	C267.240173,161.773941 274.353821,154.337784 282.743591,153.071594 
	C292.440247,151.608170 301.030548,156.153244 304.807220,164.745239 
	C308.440826,173.011810 305.926239,182.671631 298.618347,188.520157 
	C291.237000,194.427475 280.069244,194.149368 273.050018,187.233032 
	C270.488220,184.708755 268.267731,184.407120 265.172943,185.017578 
	C257.025574,186.624634 248.845764,188.067307 240.294586,189.665466 
z"/>
<path fill="#63BE68" opacity="1.000000" stroke="none" 
	d="
M215.111847,226.043640 
	C217.369598,224.711960 219.752731,223.741989 222.487183,222.659912 
	C224.763412,227.141846 226.819138,231.687012 228.560440,236.349594 
	C229.490036,238.838791 230.656921,239.900589 233.555588,239.956451 
	C243.429367,240.146774 251.335770,246.978012 252.884888,256.153351 
	C254.470642,265.545685 249.294586,274.817505 240.510086,278.320251 
	C231.970169,281.725464 221.942474,278.572266 216.712006,270.836975 
	C211.352997,262.911621 212.178223,252.734680 219.205109,245.740768 
	C221.375031,243.581024 221.651932,241.963699 220.461365,239.345596 
	C218.537613,235.115128 216.960648,230.726944 215.111847,226.043640 
z"/>
<path fill="#63BE68" opacity="1.000000" stroke="none" 
	d="
M96.924133,258.037842 
	C98.316422,255.725052 99.982925,253.653931 101.876053,251.351227 
	C103.060432,251.781738 104.133675,252.325089 104.956650,253.125717 
	C109.373100,257.422089 113.317436,258.734619 119.508408,254.929550 
	C126.888763,250.393448 136.814819,253.524185 142.438248,260.246857 
	C148.045761,266.950531 148.620010,276.635132 143.844742,283.967743 
	C139.087601,291.272552 129.772339,294.774048 121.568611,292.341095 
	C112.985893,289.795746 106.265602,281.762146 107.421059,272.938538 
	C108.238762,266.694153 105.709305,263.876282 101.222733,261.225220 
	C99.798370,260.383606 98.535255,259.269135 96.924133,258.037842 
z"/>
<path fill="#66BF6D" opacity="1.000000" stroke="none" 
	d="
M175.958862,182.968811 
	C175.516266,183.538391 175.073685,184.107971 174.435181,184.878937 
	C172.839798,184.582901 171.440323,184.085495 169.638382,183.684326 
	C169.235901,183.780579 169.187485,183.849060 169.142258,183.504791 
	C168.670715,182.998154 168.244400,182.835770 167.625824,182.431427 
	C165.733047,181.433517 164.032532,180.677582 162.172791,179.720001 
	C161.697678,179.407806 161.381790,179.297272 160.795807,179.016190 
	C160.125305,178.704941 159.724899,178.564224 159.324493,178.423523 
	C151.660629,174.695557 143.996780,170.967575 136.025665,167.022797 
	C137.169937,164.589905 138.621475,162.373810 140.321747,159.951965 
	C149.369965,163.848877 158.169434,167.951508 167.574646,172.363861 
	C171.337906,174.178482 174.495422,175.683380 177.584122,177.509216 
	C176.996475,179.543045 176.477676,181.255936 175.958862,182.968811 
z"/>
<path fill="#EFEFEF" opacity="1.000000" stroke="none" 
	d="
M377.038269,172.144958 
	C380.396301,169.171234 383.599854,166.362488 387.157776,164.114731 
	C388.184814,163.465881 390.960693,163.847778 391.684753,164.754913 
	C394.975708,168.877960 397.820404,173.357208 400.670807,177.484131 
	C395.709564,180.693451 391.002930,183.738083 385.541626,187.270889 
	C382.697723,182.350021 379.858185,177.436707 377.038269,172.144958 
z"/>
<path fill="#EDEEEE" opacity="1.000000" stroke="none" 
	d="
M177.652954,177.188278 
	C174.495422,175.683380 171.337906,174.178482 167.913422,172.438538 
	C171.449860,169.619278 175.179855,166.915436 179.095276,164.513901 
	C180.522522,163.638535 182.391098,163.482742 184.644714,162.828400 
	C185.687622,156.999161 192.489914,155.823090 197.058212,152.298874 
	C197.411499,152.026321 199.128006,152.992722 199.787048,153.751450 
	C201.292786,155.484924 202.535660,157.446716 203.563904,159.760773 
	C198.474152,162.045532 193.705780,163.885284 188.937393,165.725052 
	C188.535812,165.861969 188.134232,165.998871 187.391068,165.957047 
	C186.826752,165.473831 186.604034,165.169373 186.381317,164.864899 
	C186.294983,165.594711 186.208649,166.324509 186.122314,167.054321 
	C186.122314,167.054321 186.023087,167.464157 185.677643,167.810150 
	C182.772446,171.166855 180.212708,174.177567 177.652954,177.188278 
z"/>
<path fill="#EFEFEF" opacity="1.000000" stroke="none" 
	d="
M407.138367,152.756912 
	C409.836761,156.346985 412.430237,159.602905 414.573151,163.132401 
	C415.450165,164.576843 415.352966,166.612762 415.698975,168.379608 
	C415.269989,168.434814 414.841003,168.490005 414.412018,168.545212 
	C413.562988,167.374207 412.800690,165.346298 411.842957,165.249344 
	C410.649139,165.128494 409.355255,166.738678 407.989319,167.339203 
	C406.912750,167.812531 405.661743,167.889023 404.235199,168.196274 
	C404.064545,170.056747 403.861328,172.272659 403.658081,174.488571 
	C403.281250,174.623367 402.904449,174.758148 402.527618,174.892944 
	C399.848450,170.902176 397.000946,167.007599 394.622437,162.845016 
	C394.104156,161.937988 394.806488,159.383057 395.730835,158.770645 
	C399.264404,156.429535 403.117981,154.571381 407.138367,152.756912 
z"/>
<path fill="#EFEFEF" opacity="1.000000" stroke="none" 
	d="
M374.001221,192.999390 
	C373.892609,194.116653 373.783997,195.233917 373.569763,197.437729 
	C372.436493,195.588425 371.839813,194.614746 370.963287,193.184448 
	C370.380005,194.286987 369.923706,195.149506 369.435181,196.072891 
	C367.393219,192.683929 365.504364,189.239090 363.308319,186.002686 
	C361.554413,183.417862 361.764099,181.988541 364.861298,180.817444 
	C366.967102,180.021194 368.801331,178.506836 371.125519,177.088791 
	C371.610962,178.239532 372.022827,179.215790 372.434662,180.192047 
	C372.776154,179.851059 373.117645,179.510071 373.459137,179.169098 
	C375.439392,180.820312 377.451324,182.436874 379.353485,184.173630 
	C379.555206,184.357803 379.228058,185.670563 378.952728,185.745102 
	C375.096771,186.789230 381.226562,193.520920 374.348145,192.866882 
	C373.814575,192.690735 373.734344,192.643219 373.654114,192.595703 
	C373.769806,192.730270 373.885498,192.864838 374.001221,192.999390 
z"/>
<path fill="#64BF6C" opacity="1.000000" stroke="none" 
	d="
M82.826752,81.466057 
	C80.299042,82.500984 77.582840,83.259506 74.493401,84.043732 
	C72.135834,78.404289 70.151512,72.739151 68.016548,66.771820 
	C70.481033,65.568878 73.096153,64.668121 76.038979,63.649849 
	C78.457214,69.418098 80.547745,75.303879 82.826752,81.466057 
z"/>
<path fill="#EFEFEF" opacity="1.000000" stroke="none" 
	d="
M162.332001,179.921646 
	C164.032532,180.677582 165.733047,181.433517 167.786713,182.705566 
	C168.489075,183.430786 168.838272,183.639923 169.187485,183.849060 
	C169.187485,183.849060 169.235901,183.780579 169.275574,183.770294 
	C169.436264,185.662857 169.339447,187.611832 169.730530,189.457443 
	C170.285873,192.078262 169.387589,193.145340 166.349030,192.866821 
	C165.814667,192.690659 165.734406,192.643082 165.654160,192.595505 
	C165.769638,192.730133 165.885132,192.864761 166.000610,192.999390 
	C165.888474,194.119049 165.776337,195.238708 165.552887,197.469803 
	C164.421295,195.576645 163.831940,194.590652 162.970963,193.150253 
	C162.366150,194.286301 161.913010,195.137451 161.446442,196.013824 
	C158.744064,191.870972 156.076035,187.780792 153.154129,183.301392 
	C155.088364,181.915207 157.028137,180.525040 159.146210,178.779205 
	C159.724899,178.564224 160.125305,178.704941 160.957153,179.210205 
	C161.703064,179.690399 162.017532,179.806030 162.332001,179.921646 
M161.824799,182.725098 
	C161.974182,182.616730 162.123550,182.508347 162.272934,182.399979 
	C162.066422,182.421173 161.859909,182.442383 161.824799,182.725098 
z"/>
<path fill="#64BF6C" opacity="1.000000" stroke="none" 
	d="
M83.821304,200.796631 
	C81.111511,200.811508 78.471146,200.414566 75.436569,199.942657 
	C76.122795,195.081589 77.203239,190.295486 78.420151,185.091690 
	C81.154724,185.160263 83.752846,185.646545 86.748947,186.237091 
	C86.061531,191.022522 84.976135,195.703674 83.821304,200.796631 
z"/>
<path fill="#2F95E7" opacity="1.000000" stroke="none" 
	d="
M188.984039,166.091812 
	C193.705780,163.885284 198.474152,162.045532 203.620483,160.097778 
	C204.457794,160.044968 204.917175,160.100189 205.712067,160.245850 
	C206.610504,162.983017 207.173401,165.629730 207.736298,168.276443 
	C207.288269,168.343857 206.840240,168.411270 206.392212,168.478683 
	C205.520554,167.323654 204.638351,165.224442 203.779663,165.234009 
	C202.478745,165.248535 201.269638,166.893448 199.878311,167.535141 
	C198.807739,168.028885 197.516693,168.044586 195.879272,168.357895 
	C196.047134,170.525085 196.233627,172.932724 196.420120,175.340363 
	C196.192490,175.537903 195.964859,175.735458 195.737213,175.932999 
	C193.501709,172.774857 191.266205,169.616714 188.984039,166.091812 
z"/>
<path fill="#EFEFEF" opacity="1.000000" stroke="none" 
	d="
M382.819885,189.072281 
	C382.034943,189.234100 381.197662,189.079346 380.360413,188.924576 
	C380.527252,188.381912 380.694122,187.839264 380.860962,187.296600 
	C381.496490,187.782959 382.132019,188.269318 382.819885,189.072281 
z"/>
<path fill="#1B8FEB" opacity="1.000000" stroke="none" 
	d="
M177.584122,177.509216 
	C180.212708,174.177567 182.772446,171.166855 185.639465,168.017517 
	C185.965973,168.337128 185.985214,168.795395 186.044098,169.925842 
	C186.724960,171.073761 187.366150,171.549500 188.007355,172.025223 
	C188.007355,172.025223 188.013992,172.477798 188.111343,172.938477 
	C188.474976,173.597717 188.741257,173.796265 189.007538,173.994827 
	C189.007538,173.994827 189.000000,174.000000 188.999542,174.364807 
	C189.338318,175.834152 189.677567,176.938705 190.016800,178.043259 
	C189.554871,178.666962 189.092941,179.290649 188.242233,179.599426 
	C185.839890,179.280365 183.826324,179.276230 181.812744,179.272095 
	C182.209671,180.182999 182.606613,181.093933 183.003555,182.004852 
	C183.003555,182.004852 183.000000,182.000000 182.768616,182.100739 
	C182.360748,182.806961 182.184265,183.412460 182.007782,184.017944 
	C181.192047,185.332001 180.376297,186.646072 178.868073,189.075653 
	C177.756561,186.431747 177.125824,184.931458 176.226974,183.199982 
	C176.477676,181.255936 176.996475,179.543045 177.584122,177.509216 
z"/>
<path fill="#2B92E5" opacity="1.000000" stroke="none" 
	d="
M183.342529,181.973923 
	C182.606613,181.093933 182.209671,180.182999 181.812744,179.272095 
	C183.826324,179.276230 185.839890,179.280365 187.926727,179.642242 
	C186.560501,180.647659 185.120987,181.295319 183.342529,181.973923 
z"/>
<path fill="#2B92E5" opacity="1.000000" stroke="none" 
	d="
M190.348846,178.031952 
	C189.677567,176.938705 189.338318,175.834152 189.003510,174.361252 
	C189.893646,174.826492 190.779327,175.660095 191.836975,176.996796 
	C192.009338,177.666870 192.009766,177.833832 192.010193,178.000793 
	C191.567093,178.007401 191.124008,178.014023 190.348846,178.031952 
z"/>
<path fill="#F6F6F6" opacity="1.000000" stroke="none" 
	d="
M186.340454,167.011765 
	C186.208649,166.324509 186.294983,165.594711 186.381317,164.864899 
	C186.604034,165.169373 186.826752,165.473831 187.084381,166.045441 
	C187.038696,166.622238 186.851807,166.841125 186.340454,167.011765 
z"/>
<path fill="#2B92E5" opacity="1.000000" stroke="none" 
	d="
M182.250000,183.844345 
	C182.184265,183.412460 182.360748,182.806961 182.771179,182.100632 
	C182.834152,182.556778 182.663177,183.113754 182.250000,183.844345 
z"/>
<path fill="#2B92E5" opacity="1.000000" stroke="none" 
	d="
M187.887955,171.753265 
	C187.366150,171.549500 186.724960,171.073761 186.047104,170.269836 
	C186.596481,170.454865 187.182526,170.968079 187.887955,171.753265 
z"/>
<path fill="#2B92E5" opacity="1.000000" stroke="none" 
	d="
M188.897949,173.770233 
	C188.741257,173.796265 188.474976,173.597717 188.110092,173.164780 
	C188.270447,173.135483 188.529419,173.340576 188.897949,173.770233 
z"/>
<path fill="#1B8FEB" opacity="1.000000" stroke="none" 
	d="
M192.170227,177.910034 
	C192.009766,177.833832 192.009338,177.666870 192.012054,177.249527 
	C192.179672,177.166519 192.361282,177.321747 192.495483,177.510651 
	C192.525589,177.553024 192.389709,177.713287 192.170227,177.910034 
z"/>
<path fill="#F6F6F6" opacity="1.000000" stroke="none" 
	d="
M162.172791,179.720001 
	C162.017532,179.806030 161.703064,179.690399 161.227249,179.380768 
	C161.381790,179.297272 161.697678,179.407806 162.172791,179.720001 
z"/>
<path fill="#F6F6F6" opacity="1.000000" stroke="none" 
	d="
M169.142258,183.504791 
	C168.838272,183.639923 168.489075,183.430786 167.978973,182.947525 
	C168.244400,182.835770 168.670715,182.998154 169.142258,183.504791 
z"/>
<path fill="#F6F6F6" opacity="1.000000" stroke="none" 
	d="
M374.000610,192.999695 
	C373.885498,192.864838 373.769806,192.730270 373.654114,192.595703 
	C373.734344,192.643219 373.814575,192.690735 373.947083,192.869431 
	C373.999390,193.000610 374.000000,193.000000 374.000610,192.999695 
z"/>
<path fill="#F6F6F6" opacity="1.000000" stroke="none" 
	d="
M161.739105,182.594330 
	C161.859909,182.442383 162.066422,182.421173 162.272934,182.399979 
	C162.123550,182.508347 161.974182,182.616730 161.739105,182.594330 
z"/>
<path fill="#F6F6F6" opacity="1.000000" stroke="none" 
	d="
M166.000305,192.999695 
	C165.885132,192.864761 165.769638,192.730133 165.654160,192.595505 
	C165.734406,192.643082 165.814667,192.690659 165.947144,192.869415 
	C165.999390,193.000610 166.000000,193.000000 166.000305,192.999695 
z"/>
</svg>