<?xml version="1.0" encoding="UTF-8"?>
<!DOCTYPE svg PUBLIC "-//W3C//DTD SVG 1.1//EN" "http://www.w3.org/Graphics/SVG/1.1/DTD/svg11.dtd">
<svg xmlns="http://www.w3.org/2000/svg" version="1.1" width="6183px" height="2538px" style="shape-rendering:geometricPrecision; text-rendering:geometricPrecision; image-rendering:optimizeQuality; fill-rule:evenodd; clip-rule:evenodd" xmlns:xlink="http://www.w3.org/1999/xlink">
<g><path style="opacity:1" fill="#7cb438" d="M 3529.5,502.5 C 3528.24,512.829 3528.24,523.162 3529.5,533.5C 3262.5,533.5 2995.5,533.5 2728.5,533.5C 2726.89,552.45 2722.22,570.617 2714.5,588C 2927.99,707.915 3141.99,827.081 3356.5,945.5C 3402.45,882.034 3464.79,853.367 3543.5,859.5C 3559.96,776.523 3576.3,693.523 3592.5,610.5C 3602.25,613.649 3612.25,615.649 3622.5,616.5C 3606.36,698.692 3590.03,780.858 3573.5,863C 3573.59,864.107 3573.92,865.107 3574.5,866C 3646.94,889.769 3692.44,938.602 3711,1012.5C 3715.91,1037.22 3716.74,1061.89 3713.5,1086.5C 3904.39,1134.64 4095.39,1182.31 4286.5,1229.5C 4282.76,1239.33 4280.09,1249.33 4278.5,1259.5C 4088.24,1211.69 3897.91,1164.02 3707.5,1116.5C 3706.56,1116.61 3705.72,1116.94 3705,1117.5C 3674.47,1195.87 3617.3,1239.71 3533.5,1249C 3506.44,1250.61 3480.11,1247.28 3454.5,1239C 3422.42,1310.33 3390.75,1381.83 3359.5,1453.5C 3350.37,1448.6 3341.04,1444.27 3331.5,1440.5C 3363.15,1369.19 3394.82,1297.85 3426.5,1226.5C 3370.96,1194.09 3337.46,1146.09 3326,1082.5C 3198.56,1092 3071.06,1101.33 2943.5,1110.5C 2942.57,1100.57 2941.9,1090.57 2941.5,1080.5C 3069.11,1071.03 3196.78,1061.69 3324.5,1052.5C 3324.42,1024.92 3330.08,998.584 3341.5,973.5C 3341.02,972.522 3340.36,971.689 3339.5,971C 3126.09,852.88 2912.92,734.38 2700,615.5C 2681.35,641.814 2657.52,661.98 2628.5,676C 2660.65,763.79 2692.65,851.623 2724.5,939.5C 2714.84,942.832 2705.17,946.165 2695.5,949.5C 2663.85,862.188 2632.18,774.854 2600.5,687.5C 2599.83,687.167 2599.17,686.833 2598.5,686.5C 2527.57,701.69 2468.07,682.357 2420,628.5C 2401.41,605.656 2389.58,579.656 2384.5,550.5C 2124.13,576.171 1863.79,602.171 1603.5,628.5C 1602.73,618.523 1601.73,608.523 1600.5,598.5C 1860.44,572.106 2120.44,546.106 2380.5,520.5C 2382.97,444.998 2417.97,390.831 2485.5,358C 2552.86,332.288 2614.53,341.955 2670.5,387C 2704.3,418.105 2723.64,456.605 2728.5,502.5C 2995.5,502.5 3262.5,502.5 3529.5,502.5 Z"/></g>
<g><path style="opacity:1" fill="#2576ae" d="M 3725.5,512.5 C 3725.49,522.606 3724.49,532.606 3722.5,542.5C 3710.94,583.886 3683.94,608.386 3641.5,616C 3636.63,616.246 3631.79,616.746 3627,617.5C 3625.56,616.852 3624.06,616.519 3622.5,616.5C 3612.25,615.649 3602.25,613.649 3592.5,610.5C 3566.12,600.956 3547.29,583.289 3536,557.5C 3532.58,549.827 3530.42,541.827 3529.5,533.5C 3528.24,523.162 3528.24,512.829 3529.5,502.5C 3537.09,461.076 3561.09,434.242 3601.5,422C 3643.49,413.109 3678.33,424.942 3706,457.5C 3718.15,473.809 3724.65,492.142 3725.5,512.5 Z"/></g>
<g><path style="opacity:1" fill="#7cb438" d="M 5156.5,1015.5 C 5149.27,1022.98 5142.27,1030.64 5135.5,1038.5C 5032.7,946.207 4930.04,853.707 4827.5,761C 4826.5,760.333 4825.5,760.333 4824.5,761C 4777.32,802.467 4722.65,817.467 4660.5,806C 4650.6,803.941 4640.93,801.108 4631.5,797.5C 4630.83,797.833 4630.17,798.167 4629.5,798.5C 4564.55,928.065 4499.88,1057.73 4435.5,1187.5C 4426.14,1182.82 4416.81,1178.15 4407.5,1173.5C 4472.49,1043.53 4537.49,913.527 4602.5,783.5C 4544.43,745.381 4515.1,691.381 4514.5,621.5C 4250.45,595.562 3986.45,569.229 3722.5,542.5C 3724.49,532.606 3725.49,522.606 3725.5,512.5C 3989.47,539.097 4253.47,565.43 4517.5,591.5C 4532.84,519.345 4575.5,471.511 4645.5,448C 4719.82,429.118 4783.66,446.951 4837,501.5C 4877.91,549.818 4891.91,605.151 4879,667.5C 4872.85,692.954 4862.02,716.121 4846.5,737C 4949.43,830.433 5052.76,923.266 5156.5,1015.5 Z"/></g>
<g><path style="opacity:1" fill="#2576ae" d="M 1600.5,598.5 C 1601.73,608.523 1602.73,618.523 1603.5,628.5C 1603.07,636.908 1602.07,645.241 1600.5,653.5C 1597.25,662.905 1593.58,672.238 1589.5,681.5C 1570.71,715.747 1542.04,736.58 1503.5,744C 1466.16,749.588 1433.16,740.422 1404.5,716.5C 1397.1,709.107 1390.1,701.44 1383.5,693.5C 1357.66,651.945 1355.82,609.278 1378,565.5C 1409.45,516.664 1453.95,497.498 1511.5,508C 1558.5,521.164 1588.16,551.331 1600.5,598.5 Z"/></g>
<g><path style="opacity:1" fill="#7cb438" d="M 1600.5,653.5 C 1937.98,779.438 2275.31,905.772 2612.5,1032.5C 2608.79,1041.9 2605.13,1051.23 2601.5,1060.5C 2264.17,934.167 1926.83,807.833 1589.5,681.5C 1593.58,672.238 1597.25,662.905 1600.5,653.5 Z"/></g>
<g><path style="opacity:1" fill="#7cb438" d="M 1383.5,693.5 C 1390.1,701.44 1397.1,709.107 1404.5,716.5C 1295.7,814.126 1187.04,911.959 1078.5,1010C 1097.98,1036.94 1108.65,1067.11 1110.5,1100.5C 1377.49,1114 1644.49,1127.33 1911.5,1140.5C 1923.48,1089.35 1955.48,1059.85 2007.5,1052C 2052.7,1049.02 2087.87,1066.19 2113,1103.5C 2118.91,1113.89 2123.24,1124.89 2126,1136.5C 2126.52,1137.52 2127.35,1138.18 2128.5,1138.5C 2284.17,1127.12 2439.84,1115.79 2595.5,1104.5C 2596.46,1114.76 2597.13,1125.09 2597.5,1135.5C 2441.14,1146.17 2284.81,1157.17 2128.5,1168.5C 2122.01,1222.5 2092.34,1256 2039.5,1269C 1990.72,1275.68 1952.55,1258.85 1925,1218.5C 1916.32,1203.63 1911.15,1187.63 1909.5,1170.5C 1642.48,1157.53 1375.48,1144.2 1108.5,1130.5C 1106.67,1146.14 1102.51,1161.14 1096,1175.5C 1090.28,1187.13 1083.95,1198.13 1077,1208.5C 1296.67,1414.01 1516.17,1619.67 1735.5,1825.5C 1728.18,1832.82 1721.18,1840.49 1714.5,1848.5C 1495.43,1642.45 1276.1,1436.62 1056.5,1231C 1054.72,1231.04 1053.05,1231.71 1051.5,1233C 1008.69,1267.43 960.358,1278.43 906.5,1266C 849.168,1249.33 810.668,1212.83 791,1156.5C 772.603,1085.88 790.769,1026.72 845.5,979C 897.531,941.329 953.531,934.329 1013.5,958C 1030.14,965.227 1044.97,975.06 1058,987.5C 1166.7,889.634 1275.2,791.634 1383.5,693.5 Z"/></g>
<g><path style="opacity:1" fill="#2576ae" d="M 2941.5,1080.5 C 2941.9,1090.57 2942.57,1100.57 2943.5,1110.5C 2939.77,1180.01 2907.43,1231.17 2846.5,1264C 2782.57,1292.12 2721.9,1286.45 2664.5,1247C 2627.91,1218.54 2605.58,1181.38 2597.5,1135.5C 2597.13,1125.09 2596.46,1114.76 2595.5,1104.5C 2595.73,1089.58 2597.73,1074.92 2601.5,1060.5C 2605.13,1051.23 2608.79,1041.9 2612.5,1032.5C 2630.53,995.135 2658.2,967.468 2695.5,949.5C 2705.17,946.165 2714.84,942.832 2724.5,939.5C 2795.64,923.494 2855.47,942.494 2904,996.5C 2923.8,1021.11 2936.3,1049.11 2941.5,1080.5 Z"/></g>
<g><path style="opacity:1" fill="#2576ae" d="M 5161.5,1203.5 C 5153.79,1196.45 5146.45,1189.12 5139.5,1181.5C 5130.8,1170.44 5124.47,1158.11 5120.5,1144.5C 5118.34,1134.36 5116.34,1124.36 5114.5,1114.5C 5113.4,1086.81 5120.4,1061.48 5135.5,1038.5C 5142.27,1030.64 5149.27,1022.98 5156.5,1015.5C 5195.21,985.496 5237.54,979.33 5283.5,997C 5329.34,1019.39 5353.34,1056.22 5355.5,1107.5C 5353.34,1158.78 5329.34,1195.61 5283.5,1218C 5240.18,1234.94 5199.52,1230.11 5161.5,1203.5 Z"/></g>
<g><path style="opacity:1" fill="#7cb438" d="M 5114.5,1114.5 C 5116.34,1124.36 5118.34,1134.36 5120.5,1144.5C 4905.76,1184.58 4691.09,1224.92 4476.5,1265.5C 4475.48,1255.32 4473.48,1245.32 4470.5,1235.5C 4685.17,1195.17 4899.83,1154.83 5114.5,1114.5 Z"/></g>
<g><path style="opacity:1" fill="#2576ae" d="M 4407.5,1173.5 C 4416.81,1178.15 4426.14,1182.82 4435.5,1187.5C 4452.04,1199.91 4463.71,1215.91 4470.5,1235.5C 4473.48,1245.32 4475.48,1255.32 4476.5,1265.5C 4475.65,1309.74 4455.31,1341.24 4415.5,1360C 4372.53,1375.05 4335.03,1366.55 4303,1334.5C 4284.95,1312.84 4276.78,1287.84 4278.5,1259.5C 4280.09,1249.33 4282.76,1239.33 4286.5,1229.5C 4301.78,1195.18 4328.11,1175.34 4365.5,1170C 4379.73,1168.68 4393.73,1169.84 4407.5,1173.5 Z"/></g>
<g><path style="opacity:1" fill="#7cb438" d="M 5139.5,1181.5 C 5146.45,1189.12 5153.79,1196.45 5161.5,1203.5C 4972.83,1391.83 4784.17,1580.17 4595.5,1768.5C 4587.83,1761.5 4580.5,1754.17 4573.5,1746.5C 4762.17,1558.17 4950.83,1369.83 5139.5,1181.5 Z"/></g>
<g><path style="opacity:1" fill="#2576ae" d="M 3331.5,1440.5 C 3341.04,1444.27 3350.37,1448.6 3359.5,1453.5C 3392.45,1476.07 3407.11,1507.4 3403.5,1547.5C 3401.95,1557.36 3399.28,1567.03 3395.5,1576.5C 3388.59,1593.08 3377.92,1606.75 3363.5,1617.5C 3354.47,1622.34 3345.14,1626.68 3335.5,1630.5C 3299.23,1640.98 3266.9,1633.98 3238.5,1609.5C 3231.37,1601.72 3224.71,1593.72 3218.5,1585.5C 3200.4,1547.68 3202.9,1511.34 3226,1476.5C 3253.72,1443.09 3288.88,1431.09 3331.5,1440.5 Z"/></g>
<g><path style="opacity:1" fill="#7cb438" d="M 3403.5,1547.5 C 3719.91,1633.64 4036.24,1719.97 4352.5,1806.5C 4349.07,1815.97 4346.41,1825.63 4344.5,1835.5C 4028.11,1749.32 3711.77,1662.99 3395.5,1576.5C 3399.28,1567.03 3401.95,1557.36 3403.5,1547.5 Z"/></g>
<g><path style="opacity:1" fill="#7cb438" d="M 3218.5,1585.5 C 3224.71,1593.72 3231.37,1601.72 3238.5,1609.5C 3124.86,1700.32 3011.2,1791.16 2897.5,1882C 2911.16,1902.8 2919.16,1925.63 2921.5,1950.5C 3077.5,1950.5 3233.5,1950.5 3389.5,1950.5C 3395.04,1910.07 3414.37,1878.07 3447.5,1854.5C 3410.15,1779.81 3372.82,1705.14 3335.5,1630.5C 3345.14,1626.68 3354.47,1622.34 3363.5,1617.5C 3400.3,1692.42 3437.63,1767.09 3475.5,1841.5C 3533.8,1824.03 3582.96,1838.03 3623,1883.5C 3635.19,1898.88 3643.35,1916.21 3647.5,1935.5C 3879.18,1909.91 4110.84,1884.24 4342.5,1858.5C 4343.69,1868.38 4345.03,1878.38 4346.5,1888.5C 4114.81,1914.08 3883.14,1939.91 3651.5,1966C 3647.63,2026.86 3617.3,2068.19 3560.5,2090C 3504.32,2105.27 3456.82,2091.43 3418,2048.5C 3402.49,2028.81 3392.99,2006.47 3389.5,1981.5C 3233.5,1981.33 3077.5,1981.5 2921.5,1982C 2914.54,2031.29 2890.2,2069.29 2848.5,2096C 2806.8,2119.54 2763.13,2123.87 2717.5,2109C 2656.08,2083.72 2622.41,2037.89 2616.5,1971.5C 2381.82,1958.72 2147.15,1945.72 1912.5,1932.5C 1913.21,1922.52 1913.55,1912.52 1913.5,1902.5C 2148.5,1915.54 2383.5,1928.54 2618.5,1941.5C 2627.97,1889.21 2656.3,1851.05 2703.5,1827C 2758.62,1803.68 2810.95,1808.68 2860.5,1842C 2866.17,1847 2871.83,1852 2877.5,1857C 2878.5,1857.67 2879.5,1857.67 2880.5,1857C 2993.42,1766.72 3106.09,1676.22 3218.5,1585.5 Z"/></g>
<g><path style="opacity:1" fill="#2576ae" d="M 4573.5,1746.5 C 4580.5,1754.17 4587.83,1761.5 4595.5,1768.5C 4632.4,1819.99 4636.24,1873.99 4607,1930.5C 4569.76,1986.19 4517.93,2008.02 4451.5,1996C 4395.38,1980.71 4360.38,1944.88 4346.5,1888.5C 4345.03,1878.38 4343.69,1868.38 4342.5,1858.5C 4342.57,1850.76 4343.24,1843.09 4344.5,1835.5C 4346.41,1825.63 4349.07,1815.97 4352.5,1806.5C 4369.99,1762.85 4401.32,1734.35 4446.5,1721C 4492.91,1709.72 4535.24,1718.22 4573.5,1746.5 Z"/></g>
<g><path style="opacity:1" fill="#2576ae" d="M 1913.5,1902.5 C 1913.55,1912.52 1913.21,1922.52 1912.5,1932.5C 1902.73,1975.11 1877.06,2003.28 1835.5,2017C 1791.37,2027.68 1753.54,2016.85 1722,1984.5C 1694.17,1949.83 1687.83,1911.5 1703,1869.5C 1706.34,1862.15 1710.17,1855.15 1714.5,1848.5C 1721.18,1840.49 1728.18,1832.82 1735.5,1825.5C 1780.45,1794.11 1825.79,1793.61 1871.5,1824C 1896.92,1843.99 1910.92,1870.16 1913.5,1902.5 Z"/></g>
</svg>
