<?xml version="1.0" encoding="UTF-8"?>
<!DOCTYPE svg PUBLIC "-//W3C//DTD SVG 1.1//EN" "http://www.w3.org/Graphics/SVG/1.1/DTD/svg11.dtd">
<svg xmlns="http://www.w3.org/2000/svg" version="1.1" width="2970px" height="2970px" style="shape-rendering:geometricPrecision; text-rendering:geometricPrecision; image-rendering:optimizeQuality; fill-rule:evenodd; clip-rule:evenodd" xmlns:xlink="http://www.w3.org/1999/xlink">
<g><path style="opacity:1" fill="#000000" d="M 1470.5,501.5 C 1519.23,497.783 1556.4,516.45 1582,557.5C 1595.52,583.916 1599.35,611.583 1593.5,640.5C 1737.13,692.543 1880.63,744.876 2024,797.5C 2052.85,746.165 2096.35,726.332 2154.5,738C 2191.57,748.738 2216.74,772.238 2230,808.5C 2243.27,853.921 2233.44,893.421 2200.5,927C 2191.65,934.252 2182.32,940.752 2172.5,946.5C 2224.43,1089.13 2276.27,1231.8 2328,1374.5C 2328.35,1376.18 2329.35,1377.18 2331,1377.5C 2376.62,1367.89 2414.62,1380.56 2445,1415.5C 2471.05,1451.47 2475.72,1490.14 2459,1531.5C 2434.76,1578.05 2396.26,1599.21 2343.5,1595C 2339.13,1594.36 2334.8,1593.53 2330.5,1592.5C 2329.35,1592.82 2328.52,1593.48 2328,1594.5C 2276.22,1737.84 2224.06,1881 2171.5,2024C 2218.05,2048.24 2239.21,2086.74 2235,2139.5C 2225.17,2193.33 2193.33,2225.17 2139.5,2235C 2086.74,2239.21 2048.24,2218.05 2024,2171.5C 1881,2224.06 1737.84,2276.22 1594.5,2328C 1593.48,2328.52 1592.82,2329.35 1592.5,2330.5C 1602.19,2376.29 1589.52,2414.46 1554.5,2445C 1518.53,2471.05 1479.86,2475.72 1438.5,2459C 1391.95,2434.76 1370.79,2396.26 1375,2343.5C 1375.58,2339.28 1376.41,2335.11 1377.5,2331C 1377.18,2329.35 1376.18,2328.35 1374.5,2328C 1231.8,2276.27 1089.13,2224.43 946.5,2172.5C 917.384,2223.72 873.717,2243.55 815.5,2232C 778.429,2221.26 753.262,2197.76 740,2161.5C 726.73,2116.08 736.564,2076.58 769.5,2043C 778.141,2035.68 787.474,2029.34 797.5,2024C 744.945,1881 692.778,1737.84 641,1594.5C 640.612,1593.57 639.945,1592.91 639,1592.5C 593.385,1602.11 555.385,1589.44 525,1554.5C 498.947,1518.53 494.28,1479.86 511,1438.5C 535.242,1391.95 573.742,1370.79 626.5,1375C 630.577,1375.52 634.577,1376.35 638.5,1377.5C 639.799,1376.91 640.632,1375.91 641,1374.5C 692.833,1231.67 744.667,1088.83 796.5,946C 745.947,916.708 726.447,873.208 738,815.5C 748.738,778.429 772.238,753.262 808.5,740C 853.921,726.73 893.421,736.564 927,769.5C 934.081,778.005 940.415,787.005 946,796.5C 1088.83,744.667 1231.67,692.833 1374.5,641C 1375.91,640.632 1376.91,639.799 1377.5,638.5C 1368.68,596.466 1379.35,560.299 1409.5,530C 1427.09,514.539 1447.42,505.039 1470.5,501.5 Z M 1383.5,658.5 C 1402.64,696.096 1433.31,717.43 1475.5,722.5C 1475.5,760.167 1475.5,797.833 1475.5,835.5C 1302.17,835.5 1128.83,835.5 955.5,835.5C 954.934,829.437 953.934,823.437 952.5,817.5C 953.189,815.647 954.522,814.481 956.5,814C 1099.05,762.432 1241.38,710.599 1383.5,658.5 Z M 1585.5,659.5 C 1729.58,711.303 1873.58,763.303 2017.5,815.5C 2016.28,822.132 2015.28,828.799 2014.5,835.5C 1841.17,835.5 1667.83,835.5 1494.5,835.5C 1494.5,797.833 1494.5,760.167 1494.5,722.5C 1536.12,717.542 1566.46,696.542 1585.5,659.5 Z M 955.5,854.5 C 1128.83,854.5 1302.17,854.5 1475.5,854.5C 1475.5,1027.83 1475.5,1201.17 1475.5,1374.5C 1452.4,1376.64 1431.9,1384.97 1414,1399.5C 1252.83,1238.33 1091.67,1077.17 930.5,916C 945.027,898.1 953.361,877.6 955.5,854.5 Z M 1494.5,854.5 C 1667.83,854.5 1841.17,854.5 2014.5,854.5C 2016.41,876.076 2023.91,895.409 2037,912.5C 2037.98,913.759 2038.32,915.092 2038,916.5C 1877.5,1077 1717,1237.5 1556.5,1398C 1555.09,1398.32 1553.76,1397.98 1552.5,1397C 1535.41,1383.91 1516.08,1376.41 1494.5,1374.5C 1494.5,1201.17 1494.5,1027.83 1494.5,854.5 Z M 915.5,930.5 C 1076.97,1091.47 1238.3,1252.63 1399.5,1414C 1384.97,1431.9 1376.64,1452.4 1374.5,1475.5C 1201.17,1475.5 1027.83,1475.5 854.5,1475.5C 854.5,1302.17 854.5,1128.83 854.5,955.5C 877.575,953.451 897.908,945.117 915.5,930.5 Z M 2052.5,930.5 C 2071.09,944.618 2092.09,952.951 2115.5,955.5C 2115.5,1128.83 2115.5,1302.17 2115.5,1475.5C 1942.17,1475.5 1768.83,1475.5 1595.5,1475.5C 1593.4,1452.65 1585.24,1432.32 1571,1414.5C 1570.33,1413.83 1570.33,1413.17 1571,1412.5C 1731.7,1251.97 1892.2,1091.3 2052.5,930.5 Z M 815.5,952.5 C 822.132,953.716 828.799,954.716 835.5,955.5C 835.5,1128.83 835.5,1302.17 835.5,1475.5C 797.833,1475.5 760.167,1475.5 722.5,1475.5C 717.55,1433.4 696.217,1402.9 658.5,1384C 710.934,1240.2 763.267,1096.36 815.5,952.5 Z M 2150.5,952.5 C 2153.05,952.561 2154.55,953.894 2155,956.5C 2206.64,1099.09 2258.47,1241.59 2310.5,1384C 2273.54,1403.39 2252.54,1433.89 2247.5,1475.5C 2209.83,1475.5 2172.17,1475.5 2134.5,1475.5C 2134.5,1302.17 2134.5,1128.83 2134.5,955.5C 2140.08,955.129 2145.41,954.129 2150.5,952.5 Z M 722.5,1494.5 C 760.167,1494.5 797.833,1494.5 835.5,1494.5C 835.5,1667.83 835.5,1841.17 835.5,2014.5C 828.799,2015.28 822.132,2016.28 815.5,2017.5C 763.609,1874 711.609,1730.5 659.5,1587C 665.065,1582.54 671.065,1578.54 677.5,1575C 704.13,1554.82 719.13,1527.99 722.5,1494.5 Z M 854.5,1494.5 C 1027.83,1494.5 1201.17,1494.5 1374.5,1494.5C 1376.41,1516.08 1383.91,1535.41 1397,1552.5C 1397.98,1553.76 1398.32,1555.09 1398,1556.5C 1237.5,1717 1077,1877.5 916.5,2038C 915.092,2038.32 913.759,2037.98 912.5,2037C 895.409,2023.91 876.076,2016.41 854.5,2014.5C 854.5,1841.17 854.5,1667.83 854.5,1494.5 Z M 1595.5,1494.5 C 1768.83,1494.5 1942.17,1494.5 2115.5,1494.5C 2115.5,1667.83 2115.5,1841.17 2115.5,2014.5C 2092.4,2016.64 2071.9,2024.97 2054,2039.5C 1892.83,1878.33 1731.67,1717.17 1570.5,1556C 1585.03,1538.1 1593.36,1517.6 1595.5,1494.5 Z M 2134.5,1494.5 C 2172.17,1494.5 2209.83,1494.5 2247.5,1494.5C 2252.06,1535.36 2272.39,1565.36 2308.5,1584.5C 2308.83,1585.17 2309.17,1585.83 2309.5,1586.5C 2257.49,1730.2 2205.49,1873.86 2153.5,2017.5C 2147.22,2016.18 2140.89,2015.18 2134.5,2014.5C 2134.5,1841.17 2134.5,1667.83 2134.5,1494.5 Z M 1412.5,1570.5 C 1431.09,1584.62 1452.09,1592.95 1475.5,1595.5C 1475.5,1768.83 1475.5,1942.17 1475.5,2115.5C 1302.17,2115.5 1128.83,2115.5 955.5,2115.5C 953.403,2092.65 945.236,2072.32 931,2054.5C 930.333,2053.83 930.333,2053.17 931,2052.5C 1091.7,1891.97 1252.2,1731.3 1412.5,1570.5 Z M 1555.5,1570.5 C 1716.97,1731.47 1878.3,1892.63 2039.5,2054C 2024.97,2071.9 2016.64,2092.4 2014.5,2115.5C 1841.17,2115.5 1667.83,2115.5 1494.5,2115.5C 1494.5,1942.17 1494.5,1768.83 1494.5,1595.5C 1517.57,1593.45 1537.91,1585.12 1555.5,1570.5 Z M 955.5,2134.5 C 1128.83,2134.5 1302.17,2134.5 1475.5,2134.5C 1475.5,2172.17 1475.5,2209.83 1475.5,2247.5C 1433.89,2252.54 1403.39,2273.54 1384,2310.5C 1241.59,2258.47 1099.09,2206.64 956.5,2155C 954.777,2154.48 953.444,2153.48 952.5,2152C 953.987,2146.24 954.987,2140.41 955.5,2134.5 Z M 1494.5,2134.5 C 1667.83,2134.5 1841.17,2134.5 2014.5,2134.5C 2015.18,2140.89 2016.18,2147.22 2017.5,2153.5C 1873.86,2205.49 1730.2,2257.49 1586.5,2309.5C 1582.2,2304.25 1578.36,2298.59 1575,2292.5C 1554.82,2265.87 1527.99,2250.87 1494.5,2247.5C 1494.5,2209.83 1494.5,2172.17 1494.5,2134.5 Z"/></g>
<g><path style="opacity:1" fill="#00f9f9" d="M 1469.5,514.5 C 1521.58,510.814 1557.75,532.814 1578,580.5C 1589.45,621.41 1579.95,656.577 1549.5,686C 1517.19,711.707 1481.85,716.707 1443.5,701C 1402.3,678.443 1383.8,643.609 1388,596.5C 1398.01,551.986 1425.18,524.653 1469.5,514.5 Z"/></g>
<g><path style="opacity:1" fill="#f9d300" d="M 829.5,747.5 C 881.558,743.78 917.724,765.78 938,813.5C 949.428,854.435 939.928,889.602 909.5,919C 877.237,944.752 841.904,949.752 803.5,934C 758.634,909.126 740.8,871.293 750,820.5C 762.36,780.635 788.86,756.302 829.5,747.5 Z"/></g>
<g><path style="opacity:1" fill="#f9d300" d="M 2109.5,747.5 C 2161.56,743.78 2197.72,765.78 2218,813.5C 2229.43,854.435 2219.93,889.602 2189.5,919C 2157.24,944.752 2121.9,949.752 2083.5,934C 2038.63,909.126 2020.8,871.293 2030,820.5C 2042.36,780.635 2068.86,756.302 2109.5,747.5 Z"/></g>
<g><path style="opacity:1" fill="#00f9f9" d="M 596.5,1387.5 C 648.581,1383.81 684.748,1405.81 705,1453.5C 716.446,1494.41 706.946,1529.58 676.5,1559C 644.187,1584.71 608.854,1589.71 570.5,1574C 529.3,1551.44 510.8,1516.61 515,1469.5C 525.014,1424.99 552.181,1397.65 596.5,1387.5 Z"/></g>
<g><path style="opacity:1" fill="#f90000" d="M 1469.5,1387.5 C 1521.56,1383.78 1557.72,1405.78 1578,1453.5C 1589.45,1494.41 1579.95,1529.58 1549.5,1559C 1517.19,1584.71 1481.85,1589.71 1443.5,1574C 1398.63,1549.13 1380.8,1511.29 1390,1460.5C 1402.36,1420.64 1428.86,1396.3 1469.5,1387.5 Z"/></g>
<g><path style="opacity:1" fill="#00f9f9" d="M 2342.5,1387.5 C 2394.58,1383.81 2430.75,1405.81 2451,1453.5C 2462.45,1494.41 2452.95,1529.58 2422.5,1559C 2390.19,1584.71 2354.85,1589.71 2316.5,1574C 2275.3,1551.44 2256.8,1516.61 2261,1469.5C 2271.01,1424.99 2298.18,1397.65 2342.5,1387.5 Z"/></g>
<g><path style="opacity:1" fill="#f9d300" d="M 829.5,2027.5 C 881.558,2023.78 917.724,2045.78 938,2093.5C 949.428,2134.44 939.928,2169.6 909.5,2199C 877.237,2224.75 841.904,2229.75 803.5,2214C 758.634,2189.13 740.8,2151.29 750,2100.5C 762.36,2060.64 788.86,2036.3 829.5,2027.5 Z"/></g>
<g><path style="opacity:1" fill="#f9d300" d="M 2109.5,2027.5 C 2161.56,2023.78 2197.72,2045.78 2218,2093.5C 2229.43,2134.44 2219.93,2169.6 2189.5,2199C 2157.24,2224.75 2121.9,2229.75 2083.5,2214C 2038.63,2189.13 2020.8,2151.29 2030,2100.5C 2042.36,2060.64 2068.86,2036.3 2109.5,2027.5 Z"/></g>
<g><path style="opacity:1" fill="#00f9f9" d="M 1469.5,2260.5 C 1521.58,2256.81 1557.75,2278.81 1578,2326.5C 1589.45,2367.41 1579.95,2402.58 1549.5,2432C 1517.19,2457.71 1481.85,2462.71 1443.5,2447C 1402.3,2424.44 1383.8,2389.61 1388,2342.5C 1398.01,2297.99 1425.18,2270.65 1469.5,2260.5 Z"/></g>
</svg>
