<?xml version="1.0" encoding="UTF-8"?>
<!DOCTYPE svg PUBLIC "-//W3C//DTD SVG 1.1//EN" "http://www.w3.org/Graphics/SVG/1.1/DTD/svg11.dtd">
<svg xmlns="http://www.w3.org/2000/svg" version="1.1" width="6060px" height="6060px" style="shape-rendering:geometricPrecision; text-rendering:geometricPrecision; image-rendering:optimizeQuality; fill-rule:evenodd; clip-rule:evenodd" xmlns:xlink="http://www.w3.org/1999/xlink">
<g><path style="opacity:1" fill="#7db438" d="M 3429.5,1086.5 C 3425.73,1111.6 3419.73,1136.27 3411.5,1160.5C 3366.52,1284.31 3281.85,1368.15 3157.5,1412C 3095.7,1431.85 3032.7,1437.01 2968.5,1427.5C 2943.82,1422.91 2919.49,1416.58 2895.5,1408.5C 2800.85,1374.01 2728.68,1313.01 2679,1225.5C 2672.88,1213.6 2667.05,1201.6 2661.5,1189.5C 2652.23,1166.04 2644.57,1142.04 2638.5,1117.5C 2613.08,993.072 2638.58,880.406 2715,779.5C 2796.61,680.703 2901.94,629.703 3031,626.5C 3168.58,630.446 3278.24,687.113 3360,796.5C 3419.91,884.158 3443.08,980.825 3429.5,1086.5 Z"/></g>
<g><path style="opacity:1" fill="#2576af" d="M 4114.5,1381.5 C 4098.02,1401.32 4079.35,1418.65 4058.5,1433.5C 4016.51,1460.38 3970.51,1472.38 3920.5,1469.5C 3895.24,1467.1 3870.9,1460.77 3847.5,1450.5C 3795,1427.5 3756.83,1389.83 3733,1337.5C 3718.53,1303.99 3712.37,1268.99 3714.5,1232.5C 3716.79,1207.06 3722.79,1182.4 3732.5,1158.5C 3767.93,1082.58 3827.26,1038.42 3910.5,1026C 3986.7,1018.84 4050.86,1043 4103,1098.5C 4156.14,1162.21 4171.48,1234.21 4149,1314.5C 4141.15,1338.87 4129.65,1361.2 4114.5,1381.5 Z"/></g>
<g><path style="opacity:1" fill="#b4a2c7" d="M 3429.5,1086.5 C 3530.53,1110.34 3631.53,1134.34 3732.5,1158.5C 3722.79,1182.4 3716.79,1207.06 3714.5,1232.5C 3613.5,1208.5 3512.5,1184.5 3411.5,1160.5C 3419.73,1136.27 3425.73,1111.6 3429.5,1086.5 Z"/></g>
<g><path style="opacity:1" fill="#b4a2c7" d="M 2638.5,1117.5 C 2644.57,1142.04 2652.23,1166.04 2661.5,1189.5C 2458.77,1255.3 2256.1,1321.3 2053.5,1387.5C 2049.65,1361.96 2041.99,1337.63 2030.5,1314.5C 2233.04,1248.43 2435.71,1182.76 2638.5,1117.5 Z"/></g>
<g><path style="opacity:1" fill="#2576af" d="M 2030.5,1314.5 C 2041.99,1337.63 2049.65,1361.96 2053.5,1387.5C 2058.76,1432.22 2050.42,1474.22 2028.5,1513.5C 2021.51,1524.12 2014.01,1534.45 2006,1544.5C 1996.94,1553.73 1987.77,1562.73 1978.5,1571.5C 1935.18,1604.6 1886.18,1618.93 1831.5,1614.5C 1806.15,1610.83 1781.82,1603.5 1758.5,1592.5C 1689.06,1553.01 1652.73,1493.01 1649.5,1412.5C 1652.11,1335.73 1685.78,1277.23 1750.5,1237C 1820.73,1199.66 1890.4,1200.66 1959.5,1240C 1989.22,1259.21 2012.88,1284.05 2030.5,1314.5 Z"/></g>
<g><path style="opacity:1" fill="#b4a1c7" d="M 4114.5,1381.5 C 4302.79,1584.8 4491.79,1787.46 4681.5,1989.5C 4671.06,1998.09 4660.73,2006.93 4650.5,2016C 4641.57,2024.43 4633.23,2033.26 4625.5,2042.5C 4436.13,1839.8 4247.13,1636.8 4058.5,1433.5C 4079.35,1418.65 4098.02,1401.32 4114.5,1381.5 Z"/></g>
<g><path style="opacity:1" fill="#b4a2c7" d="M 2895.5,1408.5 C 2919.49,1416.58 2943.82,1422.91 2968.5,1427.5C 2935.66,1557.87 2902.66,1688.2 2869.5,1818.5C 2845.24,1810.6 2820.57,1804.27 2795.5,1799.5C 2828.68,1669.11 2862.01,1538.77 2895.5,1408.5 Z"/></g>
<g><path style="opacity:1" fill="#b4a1c7" d="M 3847.5,1450.5 C 3870.9,1460.77 3895.24,1467.1 3920.5,1469.5C 3873.99,1660.53 3827.33,1851.53 3780.5,2042.5C 3779.88,2042.61 3779.38,2042.94 3779,2043.5C 3755.09,2034.9 3730.59,2028.56 3705.5,2024.5C 3752.83,1833.17 3800.17,1641.83 3847.5,1450.5 Z"/></g>
<g><path style="opacity:1" fill="#b4a2c7" d="M 2028.5,1513.5 C 2176.9,1642.87 2325.9,1771.53 2475.5,1899.5C 2457.74,1917.92 2441.07,1937.26 2425.5,1957.5C 2276.27,1829.06 2127.27,1700.39 1978.5,1571.5C 1987.77,1562.73 1996.94,1553.73 2006,1544.5C 2014.01,1534.45 2021.51,1524.12 2028.5,1513.5 Z"/></g>
<g><path style="opacity:1" fill="#b4a1c7" d="M 1758.5,1592.5 C 1781.82,1603.5 1806.15,1610.83 1831.5,1614.5C 1639.68,2253.45 1448.01,2892.45 1256.5,3531.5C 1233.13,3521.24 1208.8,3514.24 1183.5,3510.5C 1374.86,2871.08 1566.52,2231.74 1758.5,1592.5 Z"/></g>
<g><path style="opacity:1" fill="#7db438" d="M 2795.5,1799.5 C 2820.57,1804.27 2845.24,1810.6 2869.5,1818.5C 2970.53,1857.03 3043.7,1925.36 3089,2023.5C 3116.6,2087.87 3126.43,2154.87 3118.5,2224.5C 3114.54,2249.42 3108.87,2274.09 3101.5,2298.5C 3069.85,2390.98 3011.85,2461.82 2927.5,2511C 2845.24,2556.11 2757.9,2570.28 2665.5,2553.5C 2640.66,2548.2 2616.33,2540.87 2592.5,2531.5C 2493.31,2488.81 2423.14,2417.48 2382,2317.5C 2341.14,2205.57 2348.47,2096.91 2404,1991.5C 2410.6,1979.75 2417.77,1968.42 2425.5,1957.5C 2441.07,1937.26 2457.74,1917.92 2475.5,1899.5C 2566.48,1817.4 2673.15,1784.06 2795.5,1799.5 Z"/></g>
<g><path style="opacity:1" fill="#7db438" d="M 4880.5,2573.5 C 4855.13,2573.16 4829.8,2570.83 4804.5,2566.5C 4710.92,2544.83 4639.76,2492.83 4591,2410.5C 4575.41,2383.22 4564.24,2354.22 4557.5,2323.5C 4552.24,2298.47 4549.57,2273.14 4549.5,2247.5C 4550.4,2169.77 4575.73,2101.44 4625.5,2042.5C 4633.23,2033.26 4641.57,2024.43 4650.5,2016C 4660.73,2006.93 4671.06,1998.09 4681.5,1989.5C 4771.04,1928.02 4868.04,1912.85 4972.5,1944C 5070.2,1978.37 5137.7,2043.87 5175,2140.5C 5210.08,2246.19 5196.75,2345.19 5135,2437.5C 5071.85,2522.5 4987.02,2567.84 4880.5,2573.5 Z"/></g>
<g><path style="opacity:1" fill="#2576af" d="M 3705.5,2024.5 C 3730.59,2028.56 3755.09,2034.9 3779,2043.5C 3779.38,2042.94 3779.88,2042.61 3780.5,2042.5C 3894.95,2087.45 3970.11,2168.78 4006,2286.5C 4007.82,2293.11 4009.32,2299.78 4010.5,2306.5C 4015.75,2331.7 4018.75,2357.04 4019.5,2382.5C 4017.54,2487.97 3978.87,2577.14 3903.5,2650C 3808.32,2733.63 3698.32,2762.63 3573.5,2737C 3458.49,2707.27 3375.66,2638.77 3325,2531.5C 3298.67,2470.69 3289.17,2407.35 3296.5,2341.5C 3299.62,2316.36 3305.28,2291.69 3313.5,2267.5C 3349.06,2166.1 3416.06,2093.6 3514.5,2050C 3575.87,2024.45 3639.54,2015.95 3705.5,2024.5 Z"/></g>
<g><path style="opacity:1" fill="#b4a2c7" d="M 3118.5,2224.5 C 3183.53,2238.71 3248.53,2253.04 3313.5,2267.5C 3305.28,2291.69 3299.62,2316.36 3296.5,2341.5C 3231.47,2327.33 3166.47,2312.99 3101.5,2298.5C 3108.87,2274.09 3114.54,2249.42 3118.5,2224.5 Z"/></g>
<g><path style="opacity:1" fill="#b4a2c7" d="M 4549.5,2247.5 C 4549.57,2273.14 4552.24,2298.47 4557.5,2323.5C 4378.14,2343.02 4198.81,2362.69 4019.5,2382.5C 4018.75,2357.04 4015.75,2331.7 4010.5,2306.5C 4190.21,2287.2 4369.88,2267.53 4549.5,2247.5 Z"/></g>
<g><path style="opacity:1" fill="#b4a1c7" d="M 2592.5,2531.5 C 2616.33,2540.87 2640.66,2548.2 2665.5,2553.5C 2580.83,2835.83 2496.17,3118.17 2411.5,3400.5C 2388.16,3389.49 2363.82,3382.16 2338.5,3378.5C 2423.17,3096.17 2507.83,2813.83 2592.5,2531.5 Z"/></g>
<g><path style="opacity:1" fill="#b4a2c7" d="M 4804.5,2566.5 C 4829.8,2570.83 4855.13,2573.16 4880.5,2573.5C 4840.32,3007.46 4800.32,3441.46 4760.5,3875.5C 4735.41,3870.64 4710.08,3868.31 4684.5,3868.5C 4724.68,3434.53 4764.68,3000.53 4804.5,2566.5 Z"/></g>
<g><path style="opacity:1" fill="#2576af" d="M 2338.5,3378.5 C 2363.82,3382.16 2388.16,3389.49 2411.5,3400.5C 2479.17,3438.44 2515.5,3496.44 2520.5,3574.5C 2520.6,3600.25 2516.26,3625.25 2507.5,3649.5C 2484.44,3710.39 2442.11,3751.56 2380.5,3773C 2357.72,3780.23 2334.39,3783.4 2310.5,3782.5C 2284.74,3781.42 2260.07,3775.75 2236.5,3765.5C 2190.1,3745.27 2155.94,3712.27 2134,3666.5C 2130.59,3659.02 2127.76,3651.35 2125.5,3643.5C 2117.89,3619.1 2114.56,3594.1 2115.5,3568.5C 2121.83,3494.63 2156.83,3439.13 2220.5,3402C 2257.51,3382.57 2296.84,3374.73 2338.5,3378.5 Z"/></g>
<g><path style="opacity:1" fill="#7db438" d="M 3846.5,3834.5 C 3840.81,3859.24 3833.48,3883.57 3824.5,3907.5C 3775.64,4012.14 3694.3,4075.3 3580.5,4097C 3564.9,4099.29 3549.23,4100.79 3533.5,4101.5C 3508.1,4100.82 3482.77,4098.16 3457.5,4093.5C 3352.52,4067.01 3277.35,4004.68 3232,3906.5C 3212.62,3861.1 3204.12,3813.77 3206.5,3764.5C 3207.58,3739.03 3211.58,3714.03 3218.5,3689.5C 3250.95,3584.55 3318.62,3512.71 3421.5,3474C 3526.81,3440.33 3625.15,3454.33 3716.5,3516C 3795.8,3574.73 3840.3,3653.57 3850,3752.5C 3851.77,3779.92 3850.61,3807.26 3846.5,3834.5 Z"/></g>
<g><path style="opacity:1" fill="#2576af" d="M 1183.5,3510.5 C 1208.8,3514.24 1233.13,3521.24 1256.5,3531.5C 1311.83,3560.83 1349.5,3605.16 1369.5,3664.5C 1376.44,3689.36 1379.44,3714.69 1378.5,3740.5C 1376.57,3790.32 1359.9,3834.32 1328.5,3872.5C 1311.45,3891.99 1292.11,3908.66 1270.5,3922.5C 1203.77,3959.55 1135.11,3963.38 1064.5,3934C 988.827,3896.95 945.66,3836.45 935,3752.5C 929.627,3668.44 960.127,3600.94 1026.5,3550C 1073.78,3516.93 1126.11,3503.76 1183.5,3510.5 Z"/></g>
<g><path style="opacity:1" fill="#b4a1c7" d="M 2115.5,3568.5 C 2114.56,3594.1 2117.89,3619.1 2125.5,3643.5C 1876.51,3675.92 1627.51,3708.25 1378.5,3740.5C 1379.44,3714.69 1376.44,3689.36 1369.5,3664.5C 1618.17,3632.5 1866.83,3600.5 2115.5,3568.5 Z"/></g>
<g><path style="opacity:1" fill="#b4a1c7" d="M 2520.5,3574.5 C 2753.17,3612.83 2985.83,3651.17 3218.5,3689.5C 3211.58,3714.03 3207.58,3739.03 3206.5,3764.5C 2973.46,3726.27 2740.46,3687.94 2507.5,3649.5C 2516.26,3625.25 2520.6,3600.25 2520.5,3574.5 Z"/></g>
<g><path style="opacity:1" fill="#b4a2c7" d="M 2236.5,3765.5 C 2260.07,3775.75 2284.74,3781.42 2310.5,3782.5C 2256.63,4024.29 2202.3,4265.96 2147.5,4507.5C 2134.94,4503.71 2122.28,4500.21 2109.5,4497C 2097.59,4494.55 2085.59,4492.71 2073.5,4491.5C 2127.83,4249.5 2182.17,4007.5 2236.5,3765.5 Z"/></g>
<g><path style="opacity:1" fill="#b4a2c7" d="M 3846.5,3834.5 C 4051.45,3896.32 4256.45,3957.99 4461.5,4019.5C 4450.53,4042.75 4443.19,4067.08 4439.5,4092.5C 4234.45,4030.99 4029.45,3969.32 3824.5,3907.5C 3833.48,3883.57 3840.81,3859.24 3846.5,3834.5 Z"/></g>
<g><path style="opacity:1" fill="#7db438" d="M 4684.5,3868.5 C 4710.08,3868.31 4735.41,3870.64 4760.5,3875.5C 4855.13,3901.3 4918.3,3960.63 4950,4053.5C 4976.02,4149.41 4956.68,4234.74 4892,4309.5C 4818.35,4383.37 4730.51,4408.2 4628.5,4384C 4579.79,4369.74 4538.12,4344.24 4503.5,4307.5C 4503.65,4306.45 4503.48,4305.45 4503,4304.5C 4486.18,4286.18 4472.34,4265.85 4461.5,4243.5C 4439.09,4195.35 4431.75,4145.02 4439.5,4092.5C 4443.19,4067.08 4450.53,4042.75 4461.5,4019.5C 4492.88,3953.62 4542.88,3908.12 4611.5,3883C 4635.21,3875.02 4659.54,3870.19 4684.5,3868.5 Z"/></g>
<g><path style="opacity:1" fill="#b4a1c7" d="M 1328.5,3872.5 C 1517.51,4093.21 1706.51,4313.87 1895.5,4534.5C 1885.82,4542.54 1875.82,4550.37 1865.5,4558C 1855.92,4566.75 1846.59,4575.58 1837.5,4584.5C 1648.5,4363.83 1459.5,4143.17 1270.5,3922.5C 1292.11,3908.66 1311.45,3891.99 1328.5,3872.5 Z"/></g>
<g><path style="opacity:1" fill="#b4a2c7" d="M 3457.5,4093.5 C 3482.77,4098.16 3508.1,4100.82 3533.5,4101.5C 3509.9,4327.87 3486.24,4554.2 3462.5,4780.5C 3437.99,4773.74 3412.99,4771.07 3387.5,4772.5C 3410.69,4546.15 3434.02,4319.82 3457.5,4093.5 Z"/></g>
<g><path style="opacity:1" fill="#b4a2c7" d="M 4461.5,4243.5 C 4472.34,4265.85 4486.18,4286.18 4503,4304.5C 4503.48,4305.45 4503.65,4306.45 4503.5,4307.5C 4204.36,4506.24 3905.36,4705.24 3606.5,4904.5C 3601.61,4895.07 3596.45,4885.73 3591,4876.5C 3582.39,4864.26 3573.56,4852.26 3564.5,4840.5C 3863.33,4641.25 4162.33,4442.25 4461.5,4243.5 Z"/></g>
<g><path style="opacity:1" fill="#7db438" d="M 2073.5,4491.5 C 2085.59,4492.71 2097.59,4494.55 2109.5,4497C 2122.28,4500.21 2134.94,4503.71 2147.5,4507.5C 2241.36,4545.2 2300.53,4613.2 2325,4711.5C 2329.76,4734.25 2331.92,4757.25 2331.5,4780.5C 2330.12,4805.81 2326.12,4830.81 2319.5,4855.5C 2287.46,4950.38 2223.79,5013.21 2128.5,5044C 2040.78,5067.42 1959.45,5053.76 1884.5,5003C 1802.77,4940.7 1763.61,4857.86 1767,4754.5C 1771.92,4689.85 1795.42,4633.18 1837.5,4584.5C 1846.59,4575.58 1855.92,4566.75 1865.5,4558C 1875.82,4550.37 1885.82,4542.54 1895.5,4534.5C 1950.05,4500.7 2009.38,4486.36 2073.5,4491.5 Z"/></g>
<g><path style="opacity:1" fill="#2576af" d="M 3387.5,4772.5 C 3412.99,4771.07 3437.99,4773.74 3462.5,4780.5C 3491.57,4788.37 3517.91,4801.54 3541.5,4820C 3549.04,4827.04 3556.7,4833.87 3564.5,4840.5C 3573.56,4852.26 3582.39,4864.26 3591,4876.5C 3596.45,4885.73 3601.61,4895.07 3606.5,4904.5C 3634.02,4972.27 3630.85,5038.6 3597,5103.5C 3547.79,5183.53 3475.96,5221.03 3381.5,5216C 3297.96,5205.43 3237.46,5162.59 3200,5087.5C 3187.24,5058.52 3180.4,5028.19 3179.5,4996.5C 3179.82,4970.92 3184.16,4945.92 3192.5,4921.5C 3215.61,4856.55 3259.28,4811.38 3323.5,4786C 3344.18,4778.36 3365.52,4773.86 3387.5,4772.5 Z"/></g>
<g><path style="opacity:1" fill="#b4a2c7" d="M 2331.5,4780.5 C 2618.52,4827.39 2905.52,4874.39 3192.5,4921.5C 3184.16,4945.92 3179.82,4970.92 3179.5,4996.5C 2892.83,4949.5 2606.17,4902.5 2319.5,4855.5C 2326.12,4830.81 2330.12,4805.81 2331.5,4780.5 Z"/></g>
</svg>
