<?xml version="1.0" encoding="UTF-8"?>
<!DOCTYPE svg PUBLIC "-//W3C//DTD SVG 1.1//EN" "http://www.w3.org/Graphics/SVG/1.1/DTD/svg11.dtd">
<svg xmlns="http://www.w3.org/2000/svg" version="1.1" width="2970px" height="2970px" style="shape-rendering:geometricPrecision; text-rendering:geometricPrecision; image-rendering:optimizeQuality; fill-rule:evenodd; clip-rule:evenodd" xmlns:xlink="http://www.w3.org/1999/xlink">
<g><path style="opacity:1" fill="#f8f9f9" d="M 1588.5,643.5 C 1587.88,643.611 1587.38,643.944 1587,644.5C 1585.86,647.777 1585.02,651.11 1584.5,654.5C 1565.65,693.944 1534.32,715.611 1490.5,719.5C 1486.5,719.5 1482.5,719.5 1478.5,719.5C 1434.69,715.336 1403.69,693.336 1385.5,653.5C 1384.61,649.581 1383.28,645.915 1381.5,642.5C 1370.78,598.499 1381.78,560.999 1414.5,530C 1449.97,502.457 1488.64,497.123 1530.5,514C 1563.45,530.283 1583.61,556.45 1591,592.5C 1593.51,609.68 1592.67,626.68 1588.5,643.5 Z"/></g>
<g><path style="opacity:1" fill="#89cec8" d="M 1471.5,515.5 C 1520.95,512.626 1555.78,533.626 1576,578.5C 1588.85,620.928 1579.02,657.094 1546.5,687C 1515.76,709.772 1482.43,714.438 1446.5,701C 1400.36,676.894 1381.86,639.06 1391,587.5C 1403.92,547.738 1430.75,523.738 1471.5,515.5 Z"/></g>
<g><path style="opacity:1" fill="#2b2b2b" d="M 1381.5,642.5 C 1383.28,645.915 1384.61,649.581 1385.5,653.5C 1239.65,706.896 1093.65,759.896 947.5,812.5C 945.891,808.946 944.558,805.279 943.5,801.5C 1089.65,748.896 1235.65,695.896 1381.5,642.5 Z"/></g>
<g><path style="opacity:1" fill="#2b2b2b" d="M 1588.5,643.5 C 1734.66,696.108 1880.66,749.108 2026.5,802.5C 2025.07,806.35 2023.41,810.017 2021.5,813.5C 1876.13,759.929 1730.46,706.929 1584.5,654.5C 1585.02,651.11 1585.86,647.777 1587,644.5C 1587.38,643.944 1587.88,643.611 1588.5,643.5 Z"/></g>
<g><path style="opacity:1" fill="#2a2b2a" d="M 1478.5,719.5 C 1482.5,719.5 1486.5,719.5 1490.5,719.5C 1490.5,759.167 1490.5,798.833 1490.5,838.5C 1666.17,838.5 1841.83,838.5 2017.5,838.5C 2017.5,842.5 2017.5,846.5 2017.5,850.5C 1841.83,850.5 1666.17,850.5 1490.5,850.5C 1490.5,1026.17 1490.5,1201.83 1490.5,1377.5C 1486.5,1377.5 1482.5,1377.5 1478.5,1377.5C 1478.5,1201.83 1478.5,1026.17 1478.5,850.5C 1303.17,850.5 1127.83,850.5 952.5,850.5C 952.5,846.5 952.5,842.5 952.5,838.5C 1127.83,838.5 1303.17,838.5 1478.5,838.5C 1478.5,798.833 1478.5,759.167 1478.5,719.5 Z"/></g>
<g><path style="opacity:1" fill="#f9f8f7" d="M 943.5,801.5 C 944.558,805.279 945.891,808.946 947.5,812.5C 950.444,820.886 952.11,829.553 952.5,838.5C 952.5,842.5 952.5,846.5 952.5,850.5C 950.933,875.948 941.933,898.281 925.5,917.5C 921.833,919.167 919.167,921.833 917.5,925.5C 898.281,941.933 875.948,950.933 850.5,952.5C 846.5,952.5 842.5,952.5 838.5,952.5C 829.553,952.11 820.886,950.444 812.5,947.5C 808.946,945.891 805.279,944.558 801.5,943.5C 760.476,923.654 739.143,890.821 737.5,845C 739.672,795.509 763.672,761.509 809.5,743C 857.948,729.376 898.448,741.543 931,779.5C 935.95,786.401 940.116,793.734 943.5,801.5 Z"/></g>
<g><path style="opacity:1" fill="#f9f8f8" d="M 2167.5,944.5 C 2164.11,945.023 2160.78,945.857 2157.5,947C 2156.94,947.383 2156.61,947.883 2156.5,948.5C 2147.97,950.671 2139.3,952.004 2130.5,952.5C 2126.5,952.5 2122.5,952.5 2118.5,952.5C 2093.46,950.638 2071.46,941.638 2052.5,925.5C 2050.5,921.5 2047.5,918.5 2043.5,916.5C 2027.65,897.443 2018.98,875.443 2017.5,850.5C 2017.5,846.5 2017.5,842.5 2017.5,838.5C 2018.09,830.041 2019.42,821.707 2021.5,813.5C 2023.41,810.017 2025.07,806.35 2026.5,802.5C 2041.9,767.948 2068.24,746.782 2105.5,739C 2155.71,732.359 2193.88,750.526 2220,793.5C 2240.39,836.927 2236.06,877.593 2207,915.5C 2195.6,927.764 2182.43,937.431 2167.5,944.5 Z"/></g>
<g><path style="opacity:1" fill="#fabb76" d="M 833.5,748.5 C 882.154,746.231 916.32,767.231 936,811.5C 948.958,853.947 939.125,890.114 906.5,920C 871.783,945.34 835.116,948.34 796.5,929C 757.595,903 742.428,866.833 751,820.5C 764.166,779.82 791.666,755.82 833.5,748.5 Z"/></g>
<g><path style="opacity:1" fill="#fabb76" d="M 2113.5,748.5 C 2162.15,746.231 2196.32,767.231 2216,811.5C 2228.96,853.947 2219.12,890.114 2186.5,920C 2151.78,945.34 2115.12,948.34 2076.5,929C 2037.59,903 2022.43,866.833 2031,820.5C 2044.17,779.82 2071.67,755.82 2113.5,748.5 Z"/></g>
<g><path style="opacity:1" fill="#2b2b2b" d="M 2043.5,916.5 C 2047.5,918.5 2050.5,921.5 2052.5,925.5C 1889.83,1087.5 1727.5,1249.83 1565.5,1412.5C 1561.5,1410.5 1558.5,1407.5 1556.5,1403.5C 1719.17,1241.5 1881.5,1079.17 2043.5,916.5 Z"/></g>
<g><path style="opacity:1" fill="#2b2b2b" d="M 925.5,917.5 C 1088.17,1079.5 1250.5,1241.83 1412.5,1404.5C 1410.83,1408.17 1408.17,1410.83 1404.5,1412.5C 1241.83,1250.5 1079.5,1088.17 917.5,925.5C 919.167,921.833 921.833,919.167 925.5,917.5 Z"/></g>
<g><path style="opacity:1" fill="#2b2b2b" d="M 801.5,943.5 C 805.279,944.558 808.946,945.891 812.5,947.5C 759.896,1093.65 706.896,1239.65 653.5,1385.5C 649.581,1384.61 645.915,1383.28 642.5,1381.5C 695.896,1235.65 748.896,1089.65 801.5,943.5 Z"/></g>
<g><path style="opacity:1" fill="#2b2b2b" d="M 2167.5,944.5 C 2220.3,1090.25 2273.3,1235.91 2326.5,1381.5C 2323.2,1383.64 2319.53,1384.98 2315.5,1385.5C 2262.3,1239.91 2209.3,1094.25 2156.5,948.5C 2156.61,947.883 2156.94,947.383 2157.5,947C 2160.78,945.857 2164.11,945.023 2167.5,944.5 Z"/></g>
<g><path style="opacity:1" fill="#2a2b2a" d="M 838.5,952.5 C 842.5,952.5 846.5,952.5 850.5,952.5C 850.5,1127.83 850.5,1303.17 850.5,1478.5C 1026.17,1478.5 1201.83,1478.5 1377.5,1478.5C 1377.5,1482.5 1377.5,1486.5 1377.5,1490.5C 1201.83,1490.5 1026.17,1490.5 850.5,1490.5C 850.5,1666.17 850.5,1841.83 850.5,2017.5C 846.5,2017.5 842.5,2017.5 838.5,2017.5C 838.5,1841.83 838.5,1666.17 838.5,1490.5C 798.833,1490.5 759.167,1490.5 719.5,1490.5C 719.5,1486.5 719.5,1482.5 719.5,1478.5C 759.167,1478.5 798.833,1478.5 838.5,1478.5C 838.5,1303.17 838.5,1127.83 838.5,952.5 Z"/></g>
<g><path style="opacity:1" fill="#2a2b2a" d="M 2118.5,952.5 C 2122.5,952.5 2126.5,952.5 2130.5,952.5C 2130.5,1127.83 2130.5,1303.17 2130.5,1478.5C 2170.5,1478.5 2210.5,1478.5 2250.5,1478.5C 2250.5,1482.5 2250.5,1486.5 2250.5,1490.5C 2210.5,1490.5 2170.5,1490.5 2130.5,1490.5C 2130.5,1666.17 2130.5,1841.83 2130.5,2017.5C 2126.5,2017.5 2122.5,2017.5 2118.5,2017.5C 2118.5,1841.83 2118.5,1666.17 2118.5,1490.5C 1943.17,1490.5 1767.83,1490.5 1592.5,1490.5C 1592.5,1486.5 1592.5,1482.5 1592.5,1478.5C 1767.83,1478.5 1943.17,1478.5 2118.5,1478.5C 2118.5,1303.17 2118.5,1127.83 2118.5,952.5 Z"/></g>
<g><path style="opacity:1" fill="#f8f9f9" d="M 642.5,1381.5 C 645.915,1383.28 649.581,1384.61 653.5,1385.5C 693.336,1403.69 715.336,1434.69 719.5,1478.5C 719.5,1482.5 719.5,1486.5 719.5,1490.5C 715.611,1534.32 693.944,1565.65 654.5,1584.5C 651.11,1585.02 647.777,1585.86 644.5,1587C 643.944,1587.38 643.611,1587.88 643.5,1588.5C 599.131,1599.43 561.298,1588.43 530,1555.5C 502.457,1520.03 497.123,1481.36 514,1439.5C 530.283,1406.55 556.45,1386.39 592.5,1379C 609.361,1376.47 626.028,1377.3 642.5,1381.5 Z"/></g>
<g><path style="opacity:1" fill="#f9f8f7" d="M 1478.5,1377.5 C 1482.5,1377.5 1486.5,1377.5 1490.5,1377.5C 1515.44,1378.98 1537.44,1387.65 1556.5,1403.5C 1558.5,1407.5 1561.5,1410.5 1565.5,1412.5C 1581.64,1431.46 1590.64,1453.46 1592.5,1478.5C 1592.5,1482.5 1592.5,1486.5 1592.5,1490.5C 1590.93,1515.95 1581.93,1538.28 1565.5,1557.5C 1561.83,1559.17 1559.17,1561.83 1557.5,1565.5C 1538.28,1581.93 1515.95,1590.93 1490.5,1592.5C 1486.5,1592.5 1482.5,1592.5 1478.5,1592.5C 1453.46,1590.64 1431.46,1581.64 1412.5,1565.5C 1410.5,1561.5 1407.5,1558.5 1403.5,1556.5C 1387.65,1537.44 1378.98,1515.44 1377.5,1490.5C 1377.5,1486.5 1377.5,1482.5 1377.5,1478.5C 1379.36,1453.46 1388.36,1431.46 1404.5,1412.5C 1408.17,1410.83 1410.83,1408.17 1412.5,1404.5C 1431.46,1388.36 1453.46,1379.36 1478.5,1377.5 Z"/></g>
<g><path style="opacity:1" fill="#f8f9f9" d="M 2326.5,1588.5 C 2323.02,1586.59 2319.35,1584.93 2315.5,1583.5C 2280.95,1568.1 2259.78,1541.76 2252,1504.5C 2251.17,1499.86 2250.67,1495.2 2250.5,1490.5C 2250.5,1486.5 2250.5,1482.5 2250.5,1478.5C 2254.68,1435.09 2276.35,1404.09 2315.5,1385.5C 2319.53,1384.98 2323.2,1383.64 2326.5,1381.5C 2370.87,1370.57 2408.7,1381.57 2440,1414.5C 2467.54,1449.97 2472.88,1488.64 2456,1530.5C 2439.72,1563.45 2413.55,1583.61 2377.5,1591C 2360.32,1593.51 2343.32,1592.67 2326.5,1588.5 Z"/></g>
<g><path style="opacity:1" fill="#89cec8" d="M 598.5,1388.5 C 647.947,1385.63 682.78,1406.63 703,1451.5C 715.853,1493.93 706.02,1530.09 673.5,1560C 642.763,1582.77 609.43,1587.44 573.5,1574C 527.365,1549.89 508.865,1512.06 518,1460.5C 530.919,1420.74 557.753,1396.74 598.5,1388.5 Z"/></g>
<g><path style="opacity:1" fill="#fa7d6a" d="M 1473.5,1388.5 C 1522.14,1386.23 1556.31,1407.23 1576,1451.5C 1588.96,1493.94 1579.13,1530.1 1546.5,1560C 1515.87,1583.39 1482.54,1588.06 1446.5,1574C 1400.36,1549.89 1381.86,1512.06 1391,1460.5C 1404.17,1419.82 1431.67,1395.82 1473.5,1388.5 Z"/></g>
<g><path style="opacity:1" fill="#89cec8" d="M 2344.5,1388.5 C 2393.95,1385.63 2428.78,1406.63 2449,1451.5C 2461.85,1493.93 2452.02,1530.09 2419.5,1560C 2388.76,1582.77 2355.43,1587.44 2319.5,1574C 2273.36,1549.89 2254.86,1512.06 2264,1460.5C 2276.92,1420.74 2303.75,1396.74 2344.5,1388.5 Z"/></g>
<g><path style="opacity:1" fill="#2b2b2b" d="M 1403.5,1556.5 C 1407.5,1558.5 1410.5,1561.5 1412.5,1565.5C 1249.83,1727.5 1087.5,1889.83 925.5,2052.5C 921.5,2050.5 918.5,2047.5 916.5,2043.5C 1079.17,1881.5 1241.5,1719.17 1403.5,1556.5 Z"/></g>
<g><path style="opacity:1" fill="#2b2b2b" d="M 1565.5,1557.5 C 1728.17,1719.5 1890.5,1881.83 2052.5,2044.5C 2050.83,2048.17 2048.17,2050.83 2044.5,2052.5C 1881.83,1890.5 1719.5,1728.17 1557.5,1565.5C 1559.17,1561.83 1561.83,1559.17 1565.5,1557.5 Z"/></g>
<g><path style="opacity:1" fill="#2b2b2b" d="M 654.5,1584.5 C 706.929,1730.46 759.929,1876.13 813.5,2021.5C 810.017,2023.41 806.35,2025.07 802.5,2026.5C 749.108,1880.66 696.108,1734.66 643.5,1588.5C 643.611,1587.88 643.944,1587.38 644.5,1587C 647.777,1585.86 651.11,1585.02 654.5,1584.5 Z"/></g>
<g><path style="opacity:1" fill="#2b2b2b" d="M 2315.5,1583.5 C 2319.35,1584.93 2323.02,1586.59 2326.5,1588.5C 2272.93,1733.87 2219.93,1879.54 2167.5,2025.5C 2164.11,2024.98 2160.78,2024.14 2157.5,2023C 2156.94,2022.62 2156.61,2022.12 2156.5,2021.5C 2209.1,1875.35 2262.1,1729.35 2315.5,1583.5 Z"/></g>
<g><path style="opacity:1" fill="#2a2b2a" d="M 1478.5,1592.5 C 1482.5,1592.5 1486.5,1592.5 1490.5,1592.5C 1490.5,1767.83 1490.5,1943.17 1490.5,2118.5C 1666.17,2118.5 1841.83,2118.5 2017.5,2118.5C 2017.5,2122.5 2017.5,2126.5 2017.5,2130.5C 1841.83,2130.5 1666.17,2130.5 1490.5,2130.5C 1490.5,2170.5 1490.5,2210.5 1490.5,2250.5C 1486.5,2250.5 1482.5,2250.5 1478.5,2250.5C 1478.5,2210.5 1478.5,2170.5 1478.5,2130.5C 1303.17,2130.5 1127.83,2130.5 952.5,2130.5C 952.5,2126.5 952.5,2122.5 952.5,2118.5C 1127.83,2118.5 1303.17,2118.5 1478.5,2118.5C 1478.5,1943.17 1478.5,1767.83 1478.5,1592.5 Z"/></g>
<g><path style="opacity:1" fill="#f9f8f8" d="M 838.5,2017.5 C 842.5,2017.5 846.5,2017.5 850.5,2017.5C 875.443,2018.98 897.443,2027.65 916.5,2043.5C 918.5,2047.5 921.5,2050.5 925.5,2052.5C 941.638,2071.46 950.638,2093.46 952.5,2118.5C 952.5,2122.5 952.5,2126.5 952.5,2130.5C 952.004,2139.3 950.671,2147.97 948.5,2156.5C 947.883,2156.61 947.383,2156.94 947,2157.5C 945.857,2160.78 945.023,2164.11 944.5,2167.5C 918.62,2218.27 877.286,2239.11 820.5,2230C 773.265,2216.76 745.765,2185.93 738,2137.5C 734.466,2090.06 752.966,2054.23 793.5,2030C 796.309,2028.26 799.309,2027.09 802.5,2026.5C 806.35,2025.07 810.017,2023.41 813.5,2021.5C 821.707,2019.42 830.041,2018.09 838.5,2017.5 Z"/></g>
<g><path style="opacity:1" fill="#f9f8f8" d="M 2118.5,2017.5 C 2122.5,2017.5 2126.5,2017.5 2130.5,2017.5C 2139.3,2018 2147.97,2019.33 2156.5,2021.5C 2156.61,2022.12 2156.94,2022.62 2157.5,2023C 2160.78,2024.14 2164.11,2024.98 2167.5,2025.5C 2218.27,2051.38 2239.11,2092.71 2230,2149.5C 2216.76,2196.74 2185.93,2224.24 2137.5,2232C 2085.77,2234.98 2048.43,2213.48 2025.5,2167.5C 2024.98,2164.11 2024.14,2160.78 2023,2157.5C 2022.62,2156.94 2022.12,2156.61 2021.5,2156.5C 2019.33,2147.97 2018,2139.3 2017.5,2130.5C 2017.5,2126.5 2017.5,2122.5 2017.5,2118.5C 2019.36,2093.46 2028.36,2071.46 2044.5,2052.5C 2048.17,2050.83 2050.83,2048.17 2052.5,2044.5C 2071.46,2028.36 2093.46,2019.36 2118.5,2017.5 Z"/></g>
<g><path style="opacity:1" fill="#fabb76" d="M 833.5,2028.5 C 882.154,2026.23 916.32,2047.23 936,2091.5C 948.958,2133.95 939.125,2170.11 906.5,2200C 871.783,2225.34 835.116,2228.34 796.5,2209C 757.595,2183 742.428,2146.83 751,2100.5C 764.166,2059.82 791.666,2035.82 833.5,2028.5 Z"/></g>
<g><path style="opacity:1" fill="#fabb76" d="M 2113.5,2028.5 C 2162.15,2026.23 2196.32,2047.23 2216,2091.5C 2228.96,2133.95 2219.12,2170.11 2186.5,2200C 2151.78,2225.34 2115.12,2228.34 2076.5,2209C 2037.59,2183 2022.43,2146.83 2031,2100.5C 2044.17,2059.82 2071.67,2035.82 2113.5,2028.5 Z"/></g>
<g><path style="opacity:1" fill="#2b2b2b" d="M 948.5,2156.5 C 1094.25,2209.3 1239.91,2262.3 1385.5,2315.5C 1384.98,2319.53 1383.64,2323.2 1381.5,2326.5C 1235.91,2273.3 1090.25,2220.3 944.5,2167.5C 945.023,2164.11 945.857,2160.78 947,2157.5C 947.383,2156.94 947.883,2156.61 948.5,2156.5 Z"/></g>
<g><path style="opacity:1" fill="#2b2b2b" d="M 2021.5,2156.5 C 2022.12,2156.61 2022.62,2156.94 2023,2157.5C 2024.14,2160.78 2024.98,2164.11 2025.5,2167.5C 1879.54,2219.93 1733.87,2272.93 1588.5,2326.5C 1586.59,2323.02 1584.93,2319.35 1583.5,2315.5C 1729.35,2262.1 1875.35,2209.1 2021.5,2156.5 Z"/></g>
<g><path style="opacity:1" fill="#f8f9f9" d="M 1478.5,2250.5 C 1482.5,2250.5 1486.5,2250.5 1490.5,2250.5C 1530.03,2253.84 1559.87,2272.51 1580,2306.5C 1581.74,2309.31 1582.91,2312.31 1583.5,2315.5C 1584.93,2319.35 1586.59,2323.02 1588.5,2326.5C 1599.43,2370.87 1588.43,2408.7 1555.5,2440C 1520.03,2467.54 1481.36,2472.88 1439.5,2456C 1406.55,2439.72 1386.39,2413.55 1379,2377.5C 1376.49,2360.32 1377.33,2343.32 1381.5,2326.5C 1383.64,2323.2 1384.98,2319.53 1385.5,2315.5C 1404.09,2276.35 1435.09,2254.68 1478.5,2250.5 Z"/></g>
<g><path style="opacity:1" fill="#89cec8" d="M 1471.5,2261.5 C 1520.95,2258.63 1555.78,2279.63 1576,2324.5C 1588.85,2366.93 1579.02,2403.09 1546.5,2433C 1515.76,2455.77 1482.43,2460.44 1446.5,2447C 1400.36,2422.89 1381.86,2385.06 1391,2333.5C 1403.92,2293.74 1430.75,2269.74 1471.5,2261.5 Z"/></g>
</svg>
